
<svg xmlns="http://www.w3.org/2000/svg" version="1.1" xmlns:xlink="http://www.w3.org/1999/xlink" preserveAspectRatio="none" x="0px" y="0px" width="500px" height="500px" viewBox="0 0 500 500">
<defs>
<g id="fill6_0_Layer0_0_FILL">
<path fill="#FFFFFF" stroke="none" d="
M 323.55 559.95
L 322.8 558.7 317.05 555.7
Q 316.7 555.6 312.95 555.85 309 556.1 307.8 556.35 306.8 556.55 305.5 558.2 304 560.15 303.75 560.3 303.05 560.75 299.45 564.7 297.65 566.7 296 568.55 294.65 569.45 293.85 570.85 292.9 572.65 294.55 573.3 295.85 573.8 296.8 574.5 297.95 574.9 302.05 574.6 304.6 574.4 307.6 574.35 309.4 574.35 312.9 573.85 314.45 573.65 318.35 574.35 319.65 574.6 321.8 571.6 324.65 567.75 325.25 566.2 325.85 564.5 325.05 562.85 324.4 561.45 323.55 559.95
M 290.25 518.75
Q 289 515.25 288.65 514.85 288.25 514.35 284.65 515.4 282.05 516.15 279.75 517.05
L 268.3 521.95
Q 268.1 522.35 266.65 522.85 265.25 523.85 265.25 526.6 265.25 528.85 264.6 532.8 264.2 536.25 265.4 538.8 266.4 540.95 268.1 544.4 269.35 547.05 269.5 548.3 269.7 549.7 269.55 553.6 269.4 557.45 269.15 559.2 268.8 561.4 269.15 565.35 269.5 569.85 270.55 570.2
L 272.3 571.75
Q 273.25 572.6 274.9 571.35 277.65 569.95 278.85 569.05 280.95 567.45 281.8 563.55 284.8 549.3 285.9 545.8 286.5 543.9 288.65 538.9 290.75 534 291.05 533.05 292.1 530.65 292.5 529.2 293.25 526.6 292.4 524.55 291.9 523.35 290.25 518.75 Z"/>
</g>

<g id="fill5_0_Layer0_0_FILL">
<path fill="#FFFFFF" stroke="none" d="
M 318.7 527.6
Q 314.2 527.85 313.9 527.8
L 309.4 526.45
Q 309.4 537.6 309.3 538.6 309.2 541 309.1 546.5 308.95 553.75 309.25 554.55 309.5 555.25 312.8 555.55 316.4 555.85 316.75 556.1 317.45 556.65 321.1 558.7 324.8 560.75 324.8 560.55 324.45 558.5 324.25 556.15 323.8 551.5 324.5 549.3 327.65 539.95 328.4 536.7 328.8 535.1 330.1 531.85 331.1 529.3 330.9 529.1 330.55 528.75 329 528.35 327.3 527.85 325.25 527.6 323.45 527.4 318.7 527.6
M 306.75 502.1
Q 305.85 501.35 303.9 502.55 302.8 503.2 300.75 504.55 299.55 505.05 296.5 507.15 294.05 508.8 293.25 509.45 292.75 509.85 286.8 512.5
L 288.45 515.5
Q 290.15 518.65 290.25 519.2
L 292.3 530.1
Q 308.4 523.35 308.75 523.3 309 523.2 311.1 521.1 313.2 518.9 313.75 518.1 314.25 517.4 314.15 515.5 314 513.2 313.9 512.1 313.8 510.7 312.85 509.35 311.4 507.65 310.4 506.45 309.9 505.85 308.35 503.85 307.55 502.85 306.75 502.1 Z"/>
</g>

<g id="fill2_0_Layer0_0_FILL">
<path fill="#FFFFFF" stroke="none" d="
M 293.1 242.95
Q 291.95 241.15 290 241.65 280.95 243.75 276.6 247.65 273.15 251.8 264.5 260.6 256.5 268.7 252.6 273.65 241.9 284.05 233.7 293.75 232.9 294.65 232.7 295.6 232.5 296.8 233.3 297.55 236.5 301.15 243.1 307.95 244.15 309.3 245.5 309.85 247.15 310.5 248.3 309.45 253.2 305.25 253.5 305 256.45 302.55 258.9 300.95 262.35 298.7 269.2 293.2 275.8 287.95 279.6 285.55 280.4 285.05 281.35 285.3 282.25 285.55 282.8 286.25 283.05 287.4 282.15 288.5 281.6 289.1 280.4 290.25 281.7 292.9 282.2 296.7 282.3 297.7 282.7 303.45 284.2 303.75 284.4 303.75 285.4 303.75 285.9 302.95 293.65 294.4 299.4 281.05 298.4 269.45 297.75 263.65 296.55 253.55 294.4 246.45 293.65 243.85 293.1 242.95
M 353.55 235.5
Q 352.05 234.9 351.4 234.55 349.85 233.75 349 233.4 347.5 232.8 346.5 233.55 340.85 237.55 337.3 239.45 331.9 242.2 327 242.75 323.1 243.5 321.1 243.75 317.65 244.2 315.1 243.55 313.4 243.3 310.5 241.2 307.65 239.15 305.8 238.95 305.15 240.45 305.75 242.5 306.1 243.65 307 245.95 308.45 250.7 309.45 256.95 309.9 259.85 310.9 268.05 311.1 269.7 311.25 273.05 311.45 275.95 312.2 277.85 314.6 277.85 315.8 277.65 324.3 275.7 330.3 275 338.3 274.05 345 274.85 346.1 275 349.5 275.8 352.35 276.5 354.1 276.55 355.25 273.15 355.8 267.4 356.5 260.1 356.9 258.05 357.75 253.6 356.85 247.55 355.5 240.6 354.9 237.15 354.8 236.1 353.55 235.5
M 365.1 238.65
Q 365.25 239.85 366.5 244.2 367.55 247.9 367.6 250.9 367.7 253.95 367.15 262.85 366.6 272.15 366.6 272.75 366.6 274.6 367.65 278.4 368.7 282.2 369.25 282.4 370 282.65 373.7 284.4 377.7 286.25 378.35 286.75 378.85 287.15 383.95 290.8 388.9 294.45 389.5 295.25 390.5 296.5 399.65 305.65
L 418.8 282.4
Q 412.05 275.3 404.85 267.95 390.5 253.2 388.35 251.9 386.45 250.65 382 246 377.45 241.15 376.85 240.75 374.55 239.1 373.75 238.65 371.7 237.5 370.1 237.5 367.5 236.85 366.5 236.65 364.8 236.35 365.1 238.65 Z"/>
</g>

<g id="fill3_0_Layer0_0_FILL">
<path fill="#FFFFFF" stroke="none" d="
M 361.35 234.5
Q 359.85 234 356 234 355.6 234 356.65 240.15 357.85 247.05 357.85 247.75 357.85 248.75 358 256.15 358.1 263.55 357.85 265.75 357.65 267.9 356.45 273.2 355.35 278.25 355.35 278.4 355.35 278.75 351.4 277.65 347.1 276.35 346.35 276.15 345.15 275.85 333.4 277.05 321.5 278.3 318.6 279.15 315.75 279.95 313.35 279.45 311.1 278.95 310.5 277.75 310.15 277.05 309.75 271.35 309.4 265.45 308.85 264.15 308.35 262.95 307.8 255.9 307.2 248.75 306.6 247 306.05 245.4 303.85 239.75 303.35 238.45 302.6 238 301.65 237.4 299.35 237.4 297.3 237.4 295.1 238.45
L 293.25 239.5 295.15 246
Q 297.15 252.85 297.75 254.65 298.55 256.9 299.85 266.6 301.2 276.45 300.85 277.9 299.45 283.5 299.25 286.25 299.1 288.5 294.3 295.2 290.85 300.1 288.75 302.5 287.6 303.75 281.25 309.5 282.5 340.5 283 342.15 283.5 343.75 283.05 365.25 283.1 366.4 281.35 374.9 279.45 384.3 279.15 387 278.55 392.5 279 396.7 279 396.95 275.05 408.85 271.05 420.7 271.05 420.85 271.05 421.15 265.35 433.65 259.5 446.4 258.05 449 257.2 450.65 253.8 454.4 251.15 457.35 251.25 458.6 251.4 460.9 255.55 461.6 256.1 461.7 258.35 460.6 261.65 459.05 261.9 458.95 263.05 458.5 265.4 459.25 266.65 459.7 268.8 460.5 268.85 460.5 271.55 462.1 273.6 463.35 276.5 463.35
L 286.5 463.35
Q 286.85 463.35 292.75 465.35 298.65 467.35 300 467.35 308.3 467.35 309.15 467.5 309.7 467.65 311.35 469 312.25 469.75 314 471.2 315.7 472.5 324.65 472.5 326.35 472.5 331.45 473.45 336.5 474.35 337.5 474.35 338.6 474.35 343.5 473.6 348.15 472.95 348.65 473 348.75 473 351.15 473.85 353.25 474.6 354.65 474.7 355.85 474.8 359.6 474.75 363.45 474.8 366.15 475.2 368.9 475.6 370.9 467.95 372.5 459.95 372.8 459.35 373.1 458.85 376.45 444 379.95 428.75 380.65 426.85 381.45 424.8 383.5 401.1 385.75 375.35 386 373.85 386.5 370.4 385.8 355.8
L 385 341.85 380.65 299
Q 378.8 287.5 377.5 286.7 376.65 286.15 372 280.15
L 367.5 274.2
Q 368 259.35 368.15 256.85 368.3 254.35 365 236.5 362.85 235 361.35 234.5 Z"/>
</g>

<g id="fill4_0_Layer0_0_FILL">
<path fill="#FFFFFF" stroke="none" d="
M 323.25 472.2
Q 322.55 472.1 311.25 469.25
L 309.75 498.25 307.4 501.85 307.15 502.6
Q 307.35 503.8 309.55 506.05 311.7 508.15 312.7 511.9 313.8 515.95 313.9 516.1 314.9 517.55 309.8 523.1 309.45 523.25 309.3 524.65 309.2 526.3 310.15 527.1 311.1 527.9 312.95 527.9 314.1 527.95 317.3 527.8 317.4 527.8 322.7 527.55 325.7 527.4 326.75 527.85 327.1 528 328.45 529.95 329.2 531.05 330.5 529.35 332 527.5 333.15 523.6 333.9 521.15 334.8 516.55 334.95 515.75 335.3 512.05 335.4 510.8 336.65 509.8 338.3 508.45 342.5 505.95 346.85 503.35 347.55 503.35 348.65 503.35 352.25 501.8 356.35 500.05 357.25 498.55 362.6 489.3 363.4 487.1 364.55 484 365.45 481.05 366.7 476.7 366.15 476.2 365.7 475.8 361.3 475.8 356.8 475.8 356.3 475.6 355.55 475.25 353.05 474.4 350.65 473.65 349.55 473.35 348.75 473.2 347.4 473.55 345.5 474.1 344.75 474.2 343.35 474.35 338.8 474.1 334.55 473.85 334.15 473.7 323.9 472.3 323.25 472.2
M 236.4 319.65
Q 236.2 318 239.35 315.15 242.2 312.45 241.3 310.15 237.75 305.4 231.9 300.25 230.6 299 228.75 299.3 227 299.6 226 301.05 219.95 308.9 217.8 312.25 213.5 318.7 211.5 324.45 210.65 326.6 212.4 328.45 213.25 329.4 216 331.05 218.9 332.5 223.95 335.6 229.3 338.95 231.8 340.25 246.6 350.75 262.9 366.05
L 267.8 370.9
Q 270.7 373.75 272.1 376.15 271.7 378.85 269.3 380.6 266.85 382.35 264.1 381.85 264.2 380.6 265.65 378.85 267.1 377.05 267.3 375.95 267.3 374.55 265.7 374.45 264.15 374.4 263.5 375.45 261.6 377.65 260.9 379.2 259.75 381.6 260.5 383.65 262.85 387.3 270 386.65 272.2 386.85 274.35 385.15 274.65 384.9 277.8 381.75 279.3 380.35 279.8 377.65 280.15 374.45 280.4 372.95 280.75 371.45 279.55 369.5 277.85 366.8 277.7 366.25 276 361.25 272.3 356.75 264.75 347.6 254.95 337.65 247.45 330 236.4 319.65
M 418.8 282.4
L 410.75 291.65 402.75 301.9
Q 402.15 302.45 401.6 303.05 400.55 304.2 400.2 304.95 400 305.3 399.35 305.7 399.1 305.85 399.65 306.7 400.65 308.2 406.3 315.7 406.65 316.25 407.6 318.75 408.65 321.5 408.65 322.5 408.65 324 405.5 326
L 397.65 334.7 392.3 344.5 387.5 348.7 386.55 350.45
Q 385.5 352.45 385.3 353.9 385.1 355.35 385.7 359.35 386 361.45 386.5 364.45 386.65 365.75 388.55 367.55 390.25 369.15 391.6 369.7 392.55 370.05 396.75 370.4 401.1 370.7 401.25 370.75 402.15 370.95 409.8 363.55 411.55 361.85 410.55 360.3 408.85 358.45 408.2 357.1 407.6 355.8 405.6 353.25 404.1 351.35 404.45 351.15 405.15 350.75 411.4 344.35 411.55 344.3 420.15 335.85 428.7 327.4 430 326 431.4 324.55 434.1 320.6 436.95 316.45 437.3 315.1 437.65 313.8 436.85 311.25 436.15 309 435 307 434.5 306.2 432.75 301.95 431.15 298.2 429.85 296.55 428.45 294.8 425.1 289.95
L 422.05 285.45 418.8 282.4
M 331 156.55
Q 327.3 157 325.45 157.2 322.1 157.55 320.4 155.55 320 154.35 320.85 151.45 321.6 148.8 320.7 147.45 313.85 145.65 306.65 147.55 299.4 149.4 294.3 154.35 292.75 155.7 292.15 158.9 291.5 162.6 290.7 163.75 288.9 167.1 287.75 168.6 285.7 171.2 283.1 171.25 281 170.25 279.9 169.8 278.05 169 276.5 169.55 275.9 171.9 276.4 174.3 276.95 176.75 278.5 178.55 279.35 179.3 281.55 180 283.75 180.75 284.6 181.55 285.5 183.45 284.6 185.8 283.7 188.1 281.8 189.15 279.9 190.05 276.9 189.35 272.1 188.15 272 188.15 270.5 190.8 273 192.8 275.1 194.55 278 194.55 278.85 194.75 280.9 194.65 282.65 194.75 283 196.15 283.3 197.25 282.95 198.9 282.8 199.85 282.4 201.65 282.05 203.7 280 204.8 278.15 205.8 276 205.55 274.7 205.55 272.85 204.25 270.9 202.85 269.7 202.75 268.9 205.25 269.95 207.5 271.05 209.9 273.5 210.55 274.45 211.15 278.25 211.3 281.25 211.45 282.2 213.25 283.15 215.35 281.75 217.85 279.7 220.55 278.8 221.75 274.7 222.05 270.8 221.15 270.5 222.3 271.15 223.3 271.8 224.3 273 224.35 274.75 224.55 277.15 223.7
L 281.1 222.25
Q 283.6 221.6 285.85 219.1 287.2 217.65 289.5 214.45 291.85 211.2 293.4 206 294.85 199.85 295.6 196.85 296.3 193 296.4 186.25 296.45 178.55 296.8 175.65 297.25 173.6 298.25 170.85 299.45 167.7 300 166.15 301.8 161.1 305.8 157.7 310.1 154 315.2 153.95 314.2 155.2 311.4 156.75 308.6 158.35 307.6 159.65 304.5 162.55 302.6 168.05 301.5 171.15 299.6 177.45 299.15 181.05 299 187.1 298.8 194.35 298.6 196.85 296.15 208.55 293.5 215.05 295.3 218.75 299.1 226.05 300.8 229.55 304.4 233.1 305 233.7 311 239.05 312.05 240.05 313.75 240.55 314.75 240.85 316.9 241.15 324.95 241 332.35 238.1 340 235.1 345.6 229.65 347.25 228.15 349.6 224.25 351.9 220.5 353.7 218.95 351.8 212.9 351.7 209.05 352 197.2 352.1 191.2 352.3 180.55 350.5 173.45 348.9 169.3 348 167.3 346.4 163.7 344 162.15 339.2 158.7 337.95 158.05 334.3 156.1 331 156.55 Z"/>
</g>

<g id="fill1_0_Layer0_0_FILL">
<path fill="#FFFFFF" stroke="none" d="
M 348.3 146.9
Q 346.3 145.7 339.4 145.5 333.05 145.3 330.65 145.95 328.7 146.5 326.75 146.4 325.1 146.35 321.3 145.65 317.95 145 310.55 145.7 303.5 146.35 302.35 147.15 301.55 147.7 298.95 149.05 295.55 150.8 294.8 151.2 293.35 152.05 292.2 155.6 291.6 157.4 290.9 159.8 287.75 166.15 286 167.6 285.45 168.05 284.55 169.15 284.15 169.65 283.5 169.5 282.85 169.35 281.4 168.65 278.7 167.35 278.5 167.25 277.15 166.65 276.6 167.25 276 168.25 275.4 168.85 274.7 169.55 275.15 170.95 275.9 173.7 275.95 173.95 276.25 176.25 278.65 179.2 281.35 180.35 282.9 181.95 284.25 183.3 284.15 184.25 284.1 185.1 283.1 186.3 282.15 187.5 280.75 188.5 279.6 189.35 278.25 188.9 276.9 188.15 276.5 187.95
L 272.35 185.65
Q 271.9 185 271.45 185 270.6 185 270.65 188.35 270.75 191.75 273.2 193.4 274.5 194.3 276.65 194.9 278.05 195.5 280.75 196.35 281.25 196.55 281.25 197.65 281.3 198.4 281 200.4 280.4 204.05 277.3 204.35 276 204.45 274.65 203.55 272.65 202.3 272.15 202.1 272.05 202.05 269.7 201 268.65 200.5 268.1 200.7 267.55 200.9 268 203.05 268.25 204.3 268.85 206.9 269.15 208.3 272 210.1 273.45 211.05 274.85 211.65
L 279.75 212.65
Q 280.75 215.15 280.25 216.4 279.85 217.4 278.55 218.45 277.2 219.55 276.1 219.65 275.2 219.7 274.2 219.2 272.6 218.35 272.25 218.25 271.15 217.9 270.45 218 269.75 218.15 269 218.9 268.35 219.55 268.75 220.9 268.95 221.65 269.85 223.4 270.4 224.4 272.9 225.15 274.15 225.5 275.25 225.65
L 277.85 225.25
Q 278.15 225.25 281.65 223.7 285.45 222.05 286.4 221.25 288.4 219.6 291.9 214.7 292.8 213.5 294.2 208.8 295.5 203.95 295.75 203.15 296.05 202.2 296.7 198.55 297.55 193.85 297.75 193 298.2 190.65 298.35 186.8 298.55 182.55 298.05 181.1 297.65 179.85 298.55 175.95 299.6 171.15 299.65 170.75 299.8 169.3 302.25 165.1 304.6 161.1 305.3 160.6 305.7 160.3 307 158.45 308.75 156.5 311.5 155.35 314.35 154.15 317.9 154.55 319.7 154.75 321.1 155.25 321.45 155.4 324.35 155.65 327.6 155.9 329 155.7 330.35 155.5 333.4 155.95 335.55 156.3 337.3 156.7 338.95 157.15 344.55 161.15 346.5 162.55 348.35 166.15 349.35 168.05 350.4 170.5 351 171.65 352.05 175 353.15 178.5 353.35 180.1 353.65 182.25 353 204.45 353 205.4 353.75 210 354.5 214.75 354.9 215.95 355.15 216.7 354.7 218.65 354.3 220.55 354.8 221.65 355.4 222.95 360.95 222.7 361.6 222.65 368.3 222 370 221.85 372.45 218.65 374.55 215.9 375.1 214.15 375.5 212.9 375.1 209.35 374.75 206 374.3 204.95 373.95 204.2 374.45 202.05 375 199.95 375 199.7 374.1 198.45 373.3 197.25 371.7 194.85 372.1 193.65 372.5 192.55 372.9 189.85 373.3 187.05 373.5 186.4 373.85 185.35 373.15 184.65 372.55 184 371.9 184.25 371.35 184.5 369.45 184.85 367.6 185.15 366.6 185.15 365.4 185.15 364.5 184 363.5 182.75 365.15 182.2 366.5 181.75 367 180.15 367.7 178.05 368.6 177.15 369.95 175.85 369.85 174.2 369.45 172.45 369.4 171.7 369.35 170.75 367.65 170.85 366.45 170.95 365.05 171.4 364.35 171.6 361.65 170.1
L 358.25 168.15
Q 357.45 167.85 356.45 163.6 355.4 158.7 355.05 157.2 354.6 155.25 353.9 153.7 353.7 153.2 352.6 151 351.9 149.6 351.15 148.9 350.4 148.2 348.3 146.9 Z"/>
</g>

<g id="outline_0_Layer0_0_MEMBER_0_FILL">
<path fill="#231F20" stroke="none" d="
M 306.6 176.65
Q 306.5 178.2 306.65 178.85 306.9 180.05 308 180.45 309.4 180.45 310.05 178.95 310.7 177.4 309.7 176.35 308.1 176.35 306.6 176.65 Z"/>
</g>

<g id="outline_0_Layer0_0_MEMBER_1_FILL">
<path fill="#231F20" stroke="none" d="
M 334 178.15
Q 334.3 179.95 334.3 181.85 336.7 181.75 336.9 178.25
L 334 178.15 Z"/>
</g>

<g id="outline_0_Layer0_0_MEMBER_2_FILL">
<path fill="#231F20" stroke="none" d="
M 323.3 196.8
Q 320.95 196.95 320.1 196.85 320.1 198.45 320.2 198.95 323.2 198.75 324.8 198.75 325.15 196.95 323.3 196.8 Z"/>
</g>

<g id="outline_0_Layer0_0_MEMBER_3_FILL">
<path fill="#231F20" stroke="none" d="
M 325.9 222.1
Q 329.6 221.55 333.3 219.35 336.55 216.4 338.05 214 340.15 210.6 339.7 207.25 338.9 207.25 338.1 207.45 336.65 212.85 332.1 216.25 327.5 219.75 322 219.45 318.3 219.3 314.85 216.45 312.8 214.7 309.6 210.55 309.1 210 308.1 207.45 307.3 205.5 306 205.05 306.5 210.1 310.1 214.5 313.4 218.55 318.2 220.85 321.55 222.75 325.9 222.1 Z"/>
</g>

<g id="outline_0_Layer0_0_MEMBER_4_FILL">
<path fill="#231F20" stroke="none" d="
M 295.2 401.25
Q 293.55 403.7 292.5 407.8 291.9 410.15 290.8 414.75 290.1 417.9 288.2 421.9 287.1 424.2 284.7 428.75 281.85 434.6 277.1 441.7 275.95 443.35 268.4 454.05 267.9 455.6 269.2 456.2 270.5 456.8 271.3 455.35 275.6 450.05 280.1 442.95 283.05 438.25 287.8 429.85 293.05 421.05 294.4 411.15 294.7 407.65 296.9 401.05 296.1 401.25 295.2 401.25 Z"/>
</g>

<g id="outline_0_Layer0_0_MEMBER_5_FILL">
<path fill="#231F20" stroke="none" d="
M 310.5 431.45
Q 314.6 424.4 316.7 419.7 319.7 413.05 320.8 407.15 321.15 406.25 320.2 405.5 319.25 404.75 318.6 405.75 309.15 434.5 284.5 459.65 283.5 460.95 284.35 462.45 285 463.6 286.5 464.55 295.95 470 303.9 468.15 303.7 466.65 303.7 466.15 302 465.6 297.9 465.75 294.15 465.8 292.2 464.85 290.3 464.2 289.25 463.2 287.8 461.75 289 460.25 303.45 444.55 310.5 431.45 Z"/>
</g>

<g id="outline_0_Layer0_0_MEMBER_6_FILL">
<path fill="#231F20" stroke="none" d="
M 307.1 460.15
Q 305.35 462.2 306.4 465.15 307.35 467.8 309.8 469.35 315.5 474.95 327.4 473.55
L 327.8 472.25
Q 326.4 470.8 323.65 470.7 320.45 470.9 319 470.75 316.3 470.75 313.7 469.25 311.35 467.9 309.5 465.55 308.95 464.2 310.05 462.7 311.6 461.05 312.2 460.25 319.3 453 326.8 442.85 336.5 430.2 342.1 410.85 342.8 409.6 342.2 408 341.6 406.3 340 407.05 332.35 435.4 307.1 460.15 Z"/>
</g>

<g id="outline_0_Layer0_0_MEMBER_7_FILL">
<path fill="#231F20" stroke="none" d="
M 310 474.85
Q 309.5 479.5 309.45 480.35 309.3 483.5 310.1 485.75 310.8 485.85 312.7 485.85 312.5 484.7 312.7 480.1 312.9 476.55 311.9 474.75
L 310 474.85 Z"/>
</g>

<g id="outline_0_Layer0_0_MEMBER_8_FILL">
<path fill="#231F20" stroke="none" d="
M 334.2 143.55
Q 333.55 143.6 328.1 144.95 324.45 145.85 322.1 144.85 314.4 142.65 306.2 144.75 298.35 146.8 292.2 152.25 290.55 153.6 289.9 157.05 289.15 160.95 288.2 162.25 286.75 164.95 285.85 166.2 284.25 168.35 282.1 168.55 281.55 167.1 281.25 166.35 280.7 165.05 280 164.45 277.3 164.95 275.55 167.15 273.65 169.5 274.7 172.05 275.95 176 278 179.05 278.45 179.65 280.8 180.85 282.7 181.8 282.8 183.15 283.15 186.25 279.85 187.45 276.6 188.7 274.6 186.45 274.35 185.5 274.1 182.05 271.55 182.05 270.35 184.45 269.15 186.7 270.1 189.05 270.5 192.3 274 194.3 276.05 195.45 280.4 197.05 280.7 199.2 279.5 201 278.2 202.9 276.1 202.85 274.6 202.9 273.75 201.25 272.95 199.15 272.5 198.35 270 197.7 268.35 199.65 266.75 201.6 267.5 204.05 267.45 207.15 269.85 209.65 271.85 211.75 275.1 212.95 275.45 213.1 277.1 213.45 278.35 213.65 278.8 214.35 279.1 216.3 277.3 217.55 275.65 218.75 273.8 218.35
L 273.5 214.25
Q 271.6 214.25 270.9 214.4 269.45 214.75 268.8 215.85 267.25 219.1 268.85 222.7 270.5 226.45 274.1 226.95 281.3 227.1 287.4 222.45 288.25 221.7 289.75 219.85 291.2 218.35 292.7 218.25 293.9 220.6 296.15 225.4 298.25 229.6 300.2 232.25 301.35 233.7 299.85 234.85 298.7 235.75 296.9 236.05 279.75 239.75 271.1 248.15 268.3 251.55 260.8 258.9 254 265.55 250.8 269.85 249.3 271.85 246.1 274.65 242.4 277.95 241.2 279.25 239.55 281.2 234.8 286.35 230.65 290.7 228.5 293.55 224.7 296.55 220.8 301.4 219.3 303.25 214.2 310.25 212.9 312.75 209.8 317.7 207.35 322.2 207.3 325.85 208.75 329.65 213.4 332.7 216.05 334.45 221.6 337.45 231.35 343 241.55 351.2 249.6 357.7 259.7 367.35 261.2 369 261.3 369.2 262.1 370.35 261.5 371.45 260.75 372.5 258.85 374.45 257.25 376.3 257.2 378.05 256.15 380.75 257.45 383.7 258.6 386.35 261.1 388.05 264.2 389.85 268.85 389.8 269.3 389.8 276.9 389.05 277.35 389.95 277.5 390.55 276.95 397.65 273.75 406.95 271.95 412.3 267.9 422.85 261.6 439.8 252.6 451.65 252 452.55 250.75 454.35 249.7 455.95 249.3 457.25 248.65 460.4 254.2 462.65 256.55 463.4 260.15 461.7 264.15 459.75 265.9 459.85 267.55 460.75 270.6 463.1 273.45 464.95 276 464.85 277 464.8 279.95 464.9 282.3 464.55 281.9 462.35 279 462.4 277.55 462.35 275.05 462.25 273.3 461.65 272.15 461.25 270.45 460.15 268.25 458.75 267.7 458.45 264.2 457.9 262.85 457.95 260.15 457.95 258.3 459.35 256.8 460.45 255.05 460.35 253.05 460.2 253.4 458.05 254.25 456.35 256.35 453.7 258.6 450.75 259.4 449.45 264.45 442.35 268.95 431.9 270.35 428.7 276.2 413.25 279.2 405.75 281.15 395.45 281.8 391.95 284 377.15 286.95 351.8 285.3 333.25 284.6 329.2 284.2 323.7 283.8 317.25 283.6 314.05 283.5 312.1 285 310.1 286.95 307.9 287.8 306.85 292.95 300.5 295.35 296.95 299.25 291.25 301.2 285.95 301.4 281.8 302.5 279.05 301.7 265.25 299 252.95 298.75 251.55 297.2 246.65 296 242.75 296.1 240.25 301.2 237.85 302.3 240.75 305.35 248.9 306.9 259.55 307.8 265.9 308.7 278.85 308.7 280.5 310.2 283.95 311.6 283.5 315.9 281.75 319.45 280.3 321.7 279.85 331.1 277.9 337.95 277.8 346.95 277.65 354 280.45 355.7 279.85 356.9 278.35 358.05 276.85 358.3 275.05 358.8 272.2 359.25 266.5 359.7 260.85 360.2 258.05 361 253.85 359.65 247 358 238.85 358 236.05 359.6 234.85 361.3 235.9 362.8 236.85 363.2 238.75 365.65 245.95 365.85 255.7 365.95 260.2 365.3 272.85 365.15 274.4 366.2 274.95 367.2 275.45 368.4 274.55 370.2 259.1 368 246.15 367.45 243.9 367.15 242.75 366.7 240.7 367 239.25 368.15 239.15 370.7 238.8 372.85 238.7 374 240.05 378.9 245.25 391.8 257.25 398.15 263.4 411 275.7 421.8 286.6 427.9 296.15 432.1 303.1 432.3 303.45 434.65 307.7 435.7 311.25 436.45 314.05 434.8 317.15 433.7 319.15 431 322.05 425.5 327.75 417.15 335.65 407.7 344.55 403 349.05 400.25 351.35 398.95 352.65 396.7 354.85 396.4 357.25 396.05 359.15 396.95 360.8 397.95 362.65 399.9 362.35 400.15 358.5 400.4 357.45 400.8 355.85 402.45 355.25 404.1 354.55 405.2 355.85 407.05 357.8 407.7 359 408.8 361.05 408 362.85 407.1 365.75 404 367.3 401.25 368.65 398 368.35 389.7 369.25 388 364.05 386.55 357.7 387.6 351.65 389.95 350.4 392.15 347.25 393.4 345.5 395.9 341.95 404.3 329.9 411.5 322.05 410.6 317.9 407.45 313.3 406.3 311.65 401.4 305.65 390.5 293.85 377 284.05 375.8 283.2 375.15 282.85 374 282.3 373.1 282.95 373.15 284.4 374.95 285.85 377.1 287.55 377.5 288.45 379.3 309.15 380.2 316.05 380.4 319.7 381.9 332.5 383.05 342.7 382.9 349.05 385.05 379.85 380.9 414.15 377.6 433.15 375.35 442.8 371.6 458.6 366.4 470.55 365.95 471.95 364.5 472.65 361.8 473.8 358.2 473.85 355.6 473.9 351.7 473.35 350.4 472.4 351.05 470.95 351.15 470.8 352.6 468.65 359.8 458.5 364.35 450.55 370.15 440.45 373.4 431.05 373.9 429.7 373.45 428.1 372.95 426.25 371.5 427.65 365.25 444.8 350.6 464.65 348.5 467.7 347.15 469.35 345.05 471.75 342.9 473.25 339.5 474.05 333.7 472.25 332.3 471.9 332.1 470.4 331.9 468.95 333.1 468.05 343.3 457.7 350.7 445.85 363.7 426.9 368 406.85 368.5 404.9 367.8 403.25 365.9 402.6 365.6 404.45 361.75 419.1 355.7 430.75 349.6 441.55 344.05 449.35 337.2 458.95 329.9 465.95 329.6 466.3 328.7 467.15 328.05 467.95 328.6 468.65 332.65 476.1 337.9 475.75 339.75 475.6 343.55 475.65 346.9 475.55 349 474.65 351.75 476.35 356.75 476.55 363.05 476.8 364.8 477.25 364.7 479.8 363.3 483.25 362.55 485.2 361 489.05 359.55 493.1 356.4 496.35 353.35 499.5 349.3 501.35 340.7 505.75 323.3 514.35 320.2 515.7 319.75 515.85 317.7 516.6 316 516.45 315.05 512.85 314.45 511.1 313.4 508.05 311.7 506.35 310.4 504.9 309.8 504.1 308.75 502.65 309.2 501.35 310.55 499.65 313.45 497.5 317.05 494.8 318 493.95 325.85 486.6 335.4 483.65 337.75 482.9 339.1 481.95 339.65 479.95 337.55 479.75 335.8 479.55 334.2 480.45 327.25 482.4 319.6 488.2 315.15 491.5 306.7 498.75 304.75 500.4 300.1 503.15 295.7 505.85 293.6 507.65 291.45 509.6 287.45 511.25 281 513.85 280.8 513.95 277.75 515.35 271.15 517.95 265.75 520.75 264.3 525.35 261.8 535.4 264.6 541.55 266.85 546.4 265.8 555.4 264.65 565.5 265.6 569.45 266.4 571.6 268.75 572.95 270.25 573.85 273.2 574.75 275.4 574.8 277.6 573.25 278.95 572.3 281 570.05 284.05 565.7 285.65 556.45 287.35 546.55 289.5 542.65 290.65 540.85 291.8 537.35 293.1 533.45 293.9 531.95 301.4 527.2 305.9 525.85 307.4 525.7 307.9 527.25 308.2 528.1 308.2 530.05 307.5 541.6 307.45 542.7 306.95 549.95 306.3 555.35 304.85 557.05 298.75 562.5 293.95 566.8 291.9 570.25 291 572.05 291.9 573.85 295.35 576.2 300.65 576.4 302.9 576.45 309.8 575.75 311.75 575.45 315.8 575.25 319.3 574.85 321.4 573.45 323.55 572.45 324.8 569.9 325.65 568.1 326.2 565.05 326.5 562.4 325.7 560.45 324.7 558 322.2 558.05 323.05 562.05 322.35 565.4 321.5 569.35 318.5 571.35 311.7 572.2 308.3 572.5 302.35 573.1 298.1 572.85 296.65 573.05 296.45 571.6 296.3 570.2 297.3 569.55 298.95 567.85 301.65 565.3 305.4 561.85 306.1 561.15 308.4 558.8 312.65 558.2 315.1 557.85 320 557.75 320.1 554.6 315.5 554.55 310.7 554.55 310.4 552.05 310.35 548.4 310.7 542.6 311.15 534.95 311.2 533.15 311.15 532.15 311.7 531.35 312.25 530.55 313.2 530.25 316.5 528.75 320.85 528.8 323.8 528.8 328.6 529.65 328.85 531.55 328.3 533.95 327.95 535.2 326.9 538.05 324.45 544.35 323.95 545.8 322.45 550.3 322.1 553.95 322.75 553.9 324.2 553.95 325.35 553.8 325.8 552.85 326.6 551.25 327.25 548.25 328 544.75 328.5 543.45 331.05 537.5 332 533.25 334 526.1 334.95 522.55 336.6 516.2 336.6 511.65 338.75 510.1 342.4 508.35 347.8 505.8 348.4 505.45 353 503.25 355.15 501.95 358.95 499.7 360.8 496.95 362.85 493.95 364.7 489.65 365.55 487.75 367.8 481.85 368.4 480.4 368.6 478.05 368.75 475.35 368.9 474.05 371.95 468.1 374.65 459.35 377.5 449.2 379 444.15 384.2 420.85 385.9 406.15 386.4 403.45 386.45 397.65 386.55 392.05 387.1 389.25 387.65 386 387.65 380.65 387.55 373.95 387.7 372.05 387.9 370.65 389.3 370.7 389.75 370.7 391.7 371.25 394.75 371.95 398.6 371.95 401.3 371.95 405.6 371.55 408.1 370.45 409.75 368.05 411.35 365.65 411.6 362.85 412.2 360.5 410.4 358 408 355.3 407.1 353.95 406.25 353.2 406.3 352.1 406.3 351 407.2 350.35 410.25 347.25 417.4 340.5 424.05 334.2 427.5 330.55 429.7 328.25 434.5 323.5 438.3 319.15 438.8 314.75 439.6 311.9 438.25 308.45 437.95 307.65 435.4 302.65 430.9 295.3 428.05 291.2 423.7 285 419.4 280.65 411.9 272.5 397.45 259.1 381.6 244.4 375.3 237.85 372.2 237.05 370.7 236.6 368.1 235.8 366.4 234.65 363.25 232.65 359.05 232 355.8 231.45 351.2 231.65 351 231.25 350.7 230.05 353.7 223.05 357.3 219.95 354.95 215.5 354.8 208.75 355.1 200.85 355.2 197.05 355.05 183.8 355.05 183.45 354.45 175.65 351.7 170.45 350.35 167.25 349.6 165.65 348.3 162.9 346.5 161.55 340.3 156.8 337 155.15 334.45 154.05 330.65 153.85 326.25 153.85 324.1 153.75 323.5 152.35 324 150.95 324.55 149.45 326 148.95 336.65 144.1 344.6 146.65 347.5 147.3 349.6 148.85 352 150.65 352.7 153.25
L 354.5 159.05
Q 355.6 162.55 356 164.95 356.8 169.35 361.6 172.45 362.7 172.85 365.85 172.7 368.45 172.9 368.4 175.05 367.55 177.45 364.9 179.1 363.1 180.2 359.9 181.15 361.2 184.95 365.3 186.65 366 186.75 368.6 186.95 370.6 187.05 371.8 187.35 371.7 189.45 371.3 190.7 370.75 192.5 369.4 193.45 368.05 194.8 365.75 194.7 363.05 194.3 361.8 194.15 362.8 197.3 366.65 198.75 368.85 199.6 373.3 200.75 374.55 204.55 371.1 207.6 367.6 210.6 363.9 208.95 365.2 213.05 371.7 214.25 373 214.45 372.8 215.85 372.65 217.1 371.9 217.85 370.4 219.85 366.8 220.65 361.95 221.75 361.1 222.15 362 224.1 364.85 223.8 365.55 223.7 369.5 222.65 373 221.75 375.15 217.5 376.35 215.1 378.4 210.15 376.5 208.05 375.6 207.05 376.4 201.75 376.4 197.05 375.95 196.3 374.95 195.65 373.75 194.95 373.2 194.55 373.9 190.4 374.2 188.3 374.8 184.6 374.9 182.05 373.7 182 370.55 183.55 367.95 184.85 366.2 183.95 366 182.65 367.25 181.4
L 369.3 179.35
Q 371.5 176.8 371.3 173.1 371.1 169.6 368.9 166.95 367.55 168.8 365.6 169.55 363.5 170.35 361.4 169.55 359.45 168.45 358.55 165.6 357.8 162.25 357.2 160.75 356.6 159.3 355.65 155.8 354.75 152.6 354 150.95 351.05 146.4 345.25 144.55 340.25 142.95 334.2 143.55
M 325.45 157.2
Q 327.3 157 331 156.55 334.3 156.1 337.95 158.05 339.2 158.7 344 162.15 346.4 163.7 348 167.3 348.9 169.3 350.5 173.45 352.3 180.55 352.1 191.2 352 197.2 351.7 209.05 351.8 212.9 353.7 218.95 351.9 220.5 349.6 224.25 347.25 228.15 345.6 229.65 340 235.1 332.35 238.1 324.95 241 316.9 241.15 314.75 240.85 313.75 240.55 312.05 240.05 311 239.05 305 233.7 304.4 233.1 300.8 229.55 299.1 226.05 295.3 218.75 293.5 215.05 296.15 208.55 298.6 196.85 298.8 194.35 299 187.1 299.15 181.05 299.6 177.45 301.5 171.15 302.6 168.05 304.5 162.55 307.6 159.65 308.6 158.35 311.4 156.75 314.2 155.2 315.2 153.95 310.1 154 305.8 157.7 301.8 161.1 300 166.15 299.45 167.7 298.25 170.85 297.25 173.6 296.8 175.65 296.45 178.55 296.4 186.25 296.3 193 295.6 196.85 294.85 199.85 293.4 206 291.85 211.2 289.5 214.45 287.2 217.65 285.85 219.1 283.6 221.6 281.1 222.25
L 277.15 223.7
Q 274.75 224.55 273 224.35 271.8 224.3 271.15 223.3 270.5 222.3 270.8 221.15 274.7 222.05 278.8 221.75 279.7 220.55 281.75 217.85 283.15 215.35 282.2 213.25 281.25 211.45 278.25 211.3 274.45 211.15 273.5 210.55 271.05 209.9 269.95 207.5 268.9 205.25 269.7 202.75 270.9 202.85 272.85 204.25 274.7 205.55 276 205.55 278.15 205.8 280 204.8 282.05 203.7 282.4 201.65 282.8 199.85 282.95 198.9 283.3 197.25 283 196.15 282.65 194.75 280.9 194.65 278.85 194.75 278 194.55 275.1 194.55 273 192.8 270.5 190.8 272 188.15 272.1 188.15 276.9 189.35 279.9 190.05 281.8 189.15 283.7 188.1 284.6 185.8 285.5 183.45 284.6 181.55 283.75 180.75 281.55 180 279.35 179.3 278.5 178.55 276.95 176.75 276.4 174.3 275.9 171.9 276.5 169.55 278.05 169 279.9 169.8 281 170.25 283.1 171.25 285.7 171.2 287.75 168.6 288.9 167.1 290.7 163.75 291.5 162.6 292.15 158.9 292.75 155.7 294.3 154.35 299.4 149.4 306.65 147.55 313.85 145.65 320.7 147.45 321.6 148.8 320.85 151.45 320 154.35 320.4 155.55 322.1 157.55 325.45 157.2
M 327 242.75
Q 331.9 242.2 337.3 239.45 340.85 237.55 346.5 233.55 347.5 232.8 349 233.4 349.85 233.75 351.4 234.55 352.05 234.9 353.55 235.5 354.8 236.1 354.9 237.15 355.5 240.6 356.85 247.55 357.75 253.6 356.9 258.05 356.5 260.1 355.8 267.4 355.25 273.15 354.1 276.55 352.35 276.5 349.5 275.8 346.1 275 345 274.85 338.3 274.05 330.3 275 324.3 275.7 315.8 277.65 314.6 277.85 312.2 277.85 311.45 275.95 311.25 273.05 311.1 269.7 310.9 268.05 309.9 259.85 309.45 256.95 308.45 250.7 307 245.95 306.1 243.65 305.75 242.5 305.15 240.45 305.8 238.95 307.65 239.15 310.5 241.2 313.4 243.3 315.1 243.55 317.65 244.2 321.1 243.75 323.1 243.5 327 242.75
M 382.3 294.25
L 382.9 293.45
Q 384.7 294.05 386.75 295.85 387.9 296.9 390.1 298.95 398 307 399.3 308.45 404.25 314.15 406.6 319.45 407.25 320.8 406.35 322.2 405 323.75 404.4 324.45 402.8 326.05 400.55 329.1 397.95 332.55 396.8 333.85 395.75 335 393.05 338.85 390.8 342.1 389 343.65
L 387.7 342.75
Q 385.1 324.65 382.3 294.25
M 293.1 242.95
Q 293.65 243.85 294.4 246.45 296.55 253.55 297.75 263.65 298.4 269.45 299.4 281.05 293.65 294.4 285.9 302.95 285.4 303.75 284.4 303.75 284.2 303.75 282.7 303.45 282.3 297.7 282.2 296.7 281.7 292.9 280.4 290.25 281.6 289.1 282.15 288.5 283.05 287.4 282.8 286.25 282.25 285.55 281.35 285.3 280.4 285.05 279.6 285.55 275.8 287.95 269.2 293.2 262.35 298.7 258.9 300.95 256.45 302.55 253.5 305 253.2 305.25 248.3 309.45 247.15 310.5 245.5 309.85 244.15 309.3 243.1 307.95 236.5 301.15 233.3 297.55 232.5 296.8 232.7 295.6 232.9 294.65 233.7 293.75 241.9 284.05 252.6 273.65 256.5 268.7 264.5 260.6 273.15 251.8 276.6 247.65 280.95 243.75 290 241.65 291.95 241.15 293.1 242.95
M 275.05 294.15
Q 276.75 293.1 278.3 293.65 278.35 295.05 278.5 299.85 278.65 303.7 278.8 306.05 279.55 311.2 280.2 320.6 280.85 330.75 281.4 335.15 282.05 346.9 281.5 356.85 281.5 359.05 280.1 360.75 272.65 351.2 262.15 340.35 255.5 333.45 242.7 321.25 241.75 320.55 241.75 319.5 241.7 318.4 242.7 317.75 243.5 317.05 246 316.7 248.3 316.35 249.1 315.15 253.25 310.45 260.15 305.15 268.25 299.25 272.2 296.25 274.05 294.8 275.05 294.15
M 239.35 315.15
Q 236.2 318 236.4 319.65 247.45 330 254.95 337.65 264.75 347.6 272.3 356.75 276 361.25 277.7 366.25 277.85 366.8 279.55 369.5 280.75 371.45 280.4 372.95 280.15 374.45 279.8 377.65 279.3 380.35 277.8 381.75 274.65 384.9 274.35 385.15 272.2 386.85 270 386.65 262.85 387.3 260.5 383.65 259.75 381.6 260.9 379.2 261.6 377.65 263.5 375.45 264.15 374.4 265.7 374.45 267.3 374.55 267.3 375.95 267.1 377.05 265.65 378.85 264.2 380.6 264.1 381.85 266.85 382.35 269.3 380.6 271.7 378.85 272.1 376.15 270.7 373.75 267.8 370.9
L 262.9 366.05
Q 246.6 350.75 231.8 340.25 229.3 338.95 223.95 335.6 218.9 332.5 216 331.05 213.25 329.4 212.4 328.45 210.65 326.6 211.5 324.45 213.5 318.7 217.8 312.25 219.95 308.9 226 301.05 227 299.6 228.75 299.3 230.6 299 231.9 300.25 237.75 305.4 241.3 310.15 242.2 312.45 239.35 315.15
M 311.35 510.75
Q 312.85 514.35 312.1 517.95 311.65 519.05 310.35 519.85 309.6 520.3 308 521.05
L 296.6 526.45
Q 295.75 527.05 294.9 526.5 294.1 525.95 294 524.95 293.55 522.45 292.25 519.8 291.4 517.95 289.6 515.05 289.15 513.95 290.2 513.2 291.55 512.4 292.1 512.05 294 511.05 297.3 508.8 300.8 506.4 302.5 505.45 305.05 503.75 306.7 505.15 309.85 507.1 311.35 510.75
M 289.7 521.15
Q 291.6 529.65 285.6 540.55 283.8 544.1 282.1 554.65 280.6 563.75 277 568.05 276.05 569.5 274.25 569.7 272.35 569.9 272.2 567.95 271.75 555.55 277.9 542.95 279.75 539.1 279.9 534.9 280.05 530.5 278.2 526.75 277.25 524.7 276.75 523.65 275.9 521.75 276.2 520.35 277.35 519.15 279.6 518.15 280.9 517.6 283.4 516.55 285.65 515.05 287.55 517 288.85 518.45 289.7 521.15
M 310.85 524.9
Q 310.3 523.45 311.8 522.85 313.85 521.75 317.65 520.15 321.9 518.35 323.6 517.55 325.1 516.95 328.05 515.45 330.7 514.25 332.8 514.25 332.95 522.35 329 527.75 325.85 525.65 321.2 525.4 318.85 525.3 312.9 525.85 311.4 526.4 310.85 524.9
M 270.4 523.35
Q 271.25 522.85 272.25 523.2 273.25 523.6 273.6 524.55 276.35 529.65 275.7 535.95 275 542.35 271 546.35 269.2 545 268 542.2 267.2 540.35 266.4 537.05 266.85 530.4 267 529.65 267.75 525.35 270.4 523.35 Z"/>
</g>

<g id="outline_0_Layer0_0_MEMBER_9_FILL">
<path fill="#231F20" stroke="none" d="
M 419.95 282.55
L 418.9 281.25 397.9 306.65
Q 398.65 307.55 399.05 307.45 399.2 307.4 399.25 307.15
L 419.95 282.55 Z"/>
</g>
</defs>

<g id="fill6" transform="matrix( 1, 0, 0, 1, 196.5,406.7) ">
<g transform="matrix( 1, 0, 0, 1, -264.5,-514.7) ">
<use xlink:href="#fill6_0_Layer0_0_FILL"/>
</g>
</g>

<g id="fill5" transform="matrix( 1, 0, 0, 1, 218.8,393.8) ">
<g transform="matrix( 1, 0, 0, 1, -286.8,-501.8) ">
<use xlink:href="#fill5_0_Layer0_0_FILL"/>
</g>
</g>

<g id="fill2" transform="matrix( 1, 0, 0, 1, 164.65,125.15) ">
<g transform="matrix( 1, 0, 0, 1, -232.65,-233.15) ">
<use xlink:href="#fill2_0_Layer0_0_FILL"/>
</g>
</g>

<g id="fill3" transform="matrix( 1, 0, 0, 1, 183.25,126) ">
<g transform="matrix( 1, 0, 0, 1, -251.25,-234) ">
<use xlink:href="#fill3_0_Layer0_0_FILL"/>
</g>
</g>

<g id="fill4" transform="matrix( 1, 0, 0, 1, 143.2,38.55) ">
<g transform="matrix( 1, 0, 0, 1, -211.2,-146.55) ">
<use xlink:href="#fill4_0_Layer0_0_FILL"/>
</g>
</g>

<g id="fill1" transform="matrix( 1, 0, 0, 1, 199.8,37.35) ">
<g transform="matrix( 1, 0, 0, 1, -267.8,-145.35) ">
<use xlink:href="#fill1_0_Layer0_0_FILL"/>
</g>
</g>

<g id="outline" transform="matrix( 1, 0, 0, 1, 139.3,35.4) ">
<g transform="matrix( 1, 0, 0, 1, -207.3,-143.4) ">
<use xlink:href="#outline_0_Layer0_0_MEMBER_0_FILL"/>
</g>

<g transform="matrix( 1, 0, 0, 1, -207.3,-143.4) ">
<use xlink:href="#outline_0_Layer0_0_MEMBER_1_FILL"/>
</g>

<g transform="matrix( 1, 0, 0, 1, -207.3,-143.4) ">
<use xlink:href="#outline_0_Layer0_0_MEMBER_2_FILL"/>
</g>

<g transform="matrix( 1, 0, 0, 1, -207.3,-143.4) ">
<use xlink:href="#outline_0_Layer0_0_MEMBER_3_FILL"/>
</g>

<g transform="matrix( 1, 0, 0, 1, -207.3,-143.4) ">
<use xlink:href="#outline_0_Layer0_0_MEMBER_4_FILL"/>
</g>

<g transform="matrix( 1, 0, 0, 1, -207.3,-143.4) ">
<use xlink:href="#outline_0_Layer0_0_MEMBER_5_FILL"/>
</g>

<g transform="matrix( 1, 0, 0, 1, -207.3,-143.4) ">
<use xlink:href="#outline_0_Layer0_0_MEMBER_6_FILL"/>
</g>

<g transform="matrix( 1, 0, 0, 1, -207.3,-143.4) ">
<use xlink:href="#outline_0_Layer0_0_MEMBER_7_FILL"/>
</g>

<g transform="matrix( 1, 0, 0, 1, -207.3,-143.4) ">
<use xlink:href="#outline_0_Layer0_0_MEMBER_8_FILL"/>
</g>

<g transform="matrix( 1, 0, 0, 1, -207.3,-143.4) ">
<use xlink:href="#outline_0_Layer0_0_MEMBER_9_FILL"/>
</g>
</g>
</svg>
