
<svg xmlns="http://www.w3.org/2000/svg" version="1.1" xmlns:xlink="http://www.w3.org/1999/xlink" preserveAspectRatio="none" x="0px" y="0px" width="500px" height="500px" viewBox="0 0 500 500">
<defs>
<g id="fill2_0_Layer0_0_FILL">
<path fill="#FFFFFF" stroke="none" d="
M 598.6 89.75
Q 591.95 78.1 590 74.2 587.65 71.05 583.8 65.45 579.45 59.05 577.7 56.6 572.8 51.1 570.3 48.4 565.9 43.6 561.8 41.5 559.85 40.4 555.65 37.65 551.75 35.1 549.5 33.9 543.8 31.75 540.95 30.7 535.8 28.75 532 28.8 529.4 28.65 523.15 26.7 517.65 24.9 514.3 25.3 513.95 25.4 504.4 27.3 498.5 28.5 494.9 30.3 480.15 37.95 471.9 46.2 470.45 48.3 467.95 51.25
L 463.8 56.1
Q 461.6 59.35 458.1 65.4 454.25 72.1 452.5 74.8 451 78.45 446.65 85.85 442.45 92.95 440.9 97 438.85 101.45 434.9 110.45 431.3 118.3 428.2 123.5 425.65 128.75 420.45 139.25 416.15 148.4 414 155.5 413.6 156.55 411.65 161.05 410.2 164.45 409.6 166.7 409.35 169.65 408.9 175.6 408.4 180.7 407.5 184.4 407.4 185.2 406.7 196.05 406.2 203.1 405.2 207.7 404.55 210.05 404.25 214.9 403.95 219.8 403.3 222.2 402.55 225.45 402.6 231.8 402.65 238.35 402 241.4 401.65 243.7 401.7 248.15 401.8 252.75 401.5 254.9 400.9 258.7 401.5 266.3 401.5 266.5 400.9 282.3 401.4 286 401.6 290.85 401.7 292.5 401.8 299.3 402.6 303 402.6 308.8 402.5 316.9 402.6 318.3 402.7 321.05 402.6 328.25 402.5 334.6 402.7 338.3 403.6 342 403.4 348.3 403.25 350.05 404.35 352.8 405.6 355.9 405.7 357.3 405.95 360.65 407.1 365.25 407.8 367.85 409.2 373 410.55 382.95 414.9 394.5 416.35 397.2 418.05 402.8 419.8 408.5 421.1 411.1 421.75 412.55 423.75 417.9 425.35 422.1 426.7 424.5 428.65 427.7 433.65 437.95 437.8 446.45 441.3 451 443.6 453.9 448.25 459.65 452.15 464.7 454.7 468.6 455.3 469.5 456.45 471.3 457.5 472.8 458.7 473.5 460.05 473.85 463.05 474.35 465.5 475 466.3 476.9 467.25 478.95 469.85 480.95 471.25 482.05 474.1 484.2 475.6 485.8 478.55 487.25 483 489.45 483.4 489.7 489.7 491.2 491.15 491.4 495.6 492.1 499 491.4 505.95 489.65 509.05 488.5 514.6 486.5 518.3 483.6 529.1 476.45 547.3 470.5 549.35 469.35 552.15 466.4 555.25 463.15 556.8 462.1 558.7 460.8 561.25 458.55 565.05 455.15 565.5 454.8 567.15 453.6 569.35 450.65 571.65 447.45 573 446.3 576.4 442.5 580.9 435.65 586.6 426.9 588.3 424.6 590 421.8 593.25 417.05 596.9 411.85 598.3 409.6 607.9 393.85 614.3 377.5 615.4 373.05 618.5 364.4 621.6 355.75 622.7 351.3 625 342.1 627.8 332.3 628.5 329 630.8 316.3 632.6 306.4 634.1 300.3 634.55 295.15 636.05 286.75 637.85 276.65 638.3 273.3 638.45 271.45 638.4 263.25 638.35 257.15 639.2 253.3 639.7 247.65 638.35 238.3 636.8 227.25 636.7 223.3 636.85 218.45 635.45 208.9 634.05 199.4 634.2 194.6 632.8 188.55 632.2 185.5 631.15 180.25 631.1 176.3 629.2 165 625.1 151.9 624.2 145.65 620.6 137.15 616.25 127.65 614.4 122.8 613.25 119.55 610.65 114.1 607.7 108.1 606.7 105.5 604.05 99.35 598.6 89.75
M 481 237
Q 481 234.3 484.15 222.05
L 487.3 210.35 489.7 212.05
Q 492.55 214.45 494.65 218 496.75 221.55 499.1 231.75 500.35 237.25 502 246 502.8 250 503 259.95 503 260.7 503 272.35 503 274.7 502.1 289.9 501.1 306.85 501 310 500.8 314.4 498.65 317.4 495.2 322.2 494.3 324.35 492.4 328.8 489.25 318.5 487.15 311.45 486 304.35 485.65 302.3 484.65 290.65 483.65 278.8 483.3 276.65 482.85 273.65 481.9 256.85 481 240.65 481 237 Z"/>
</g>

<g id="fill1_0_Layer0_0_FILL">
<path fill="#FFFFFF" stroke="none" d="
M 552.85 145.45
Q 548.6 143.6 545 143.2 543.35 143.1 535 143.1 531.9 143.1 527.8 145.05 521.65 148 521 148.2 518.25 149.05 515.45 152.05 511.05 156.75 510.7 157 508.45 158.8 506.6 162.5 504.7 166.8 503.6 168.8 501.1 173.1 498.7 179.7 497.35 183.45 494.7 191 491.9 197 489.7 207.2 490 209 490 209.8 493.6 210.6 494.2 210.8 499.5 221.05 502.25 235.4 503.7 243.2 505.6 261.3 505.55 265.3 505.6 273.3 505.55 280.3 504.8 285.3 504.8 296.3 503.4 304.2 503.35 308.55 501.5 314.45 500.45 317.75 498.2 324.3 497.95 325.65 496.6 326.6 494.95 327.6 494.2 328.1 494.5 331 496.35 334.55 497.4 336.55 499.7 340.5 501.95 344.9 506.8 348.35 510.35 350.85 516.2 353.3 519.95 355.2 523.8 355.65 528 356.15 531.6 354.7 544.65 349.35 555 334.3 557.9 328.9 561.6 322.8 571.55 302.75 575.7 287.8 579.3 277.75 579.9 270.5 581.55 264 582.75 255 583.9 244.5 584.5 239.3 584.25 237.1 584.7 233.8 585.25 230.2 585.4 228.4 584.35 224.35 584.45 215.2 584.5 206.55 583 202.1 581.65 194.4 580.9 190.55 579.65 183.95 578.3 179.1 577.3 176.95 574.4 169.1 572.1 162.85 570 159.3 569.35 158.6 567.45 156.85 565.8 155.35 565 154.3 563.65 152.35 562.9 151.4 561.6 149.8 560.2 149.1 554.65 146.2 552.85 145.45 Z"/>
</g>

<g id="fill3_0_Layer0_0_FILL">
<path fill="#FFFFFF" stroke="none" d="
M 474 37.2
Q 474.45 36.75 477.75 34.25 480.1 32.5 480.9 30.8 464.7 30.6 441.45 30.65 415.15 30.7 402 30.7 391.65 32.35 385 32.1 383.2 32.45 368.9 33.05 359.15 33.45 353.5 36.8 352.45 37.65 349.5 37.75 346.8 37.75 345.8 39.1 344.4 40.5 340.7 44.5 337.5 47.9 335.5 49.8 334.1 51.15 332.15 53.95 329.95 57.05 328.9 58.2 325.75 61.55 322.2 67.5 316.65 76.7 316.2 77.4 307.8 91.2 305.4 95.5 299.6 105.85 296.4 114.5 295.1 119.1 291.35 127.05 287.4 135.5 286.1 139.5 280.05 157.6 278.2 163.75 274.1 177.5 272.4 188.5 266.25 211.85 263.1 245.3 260.9 255.45 260.7 270.3 260.15 275.8 260.2 279.6 260.3 284.65 261.3 288.8 261.5 290.8 261.9 294.85 262.3 298.3 263.2 300.8 263.7 305.6 264.95 311.95 265.65 315.6 267.2 322.9 267.9 325.4 269.9 334.55 271.45 341.75 273.1 346 273.8 348.6 274.85 353.9 275.9 359.2 276.6 361.8 277.05 363.15 278.9 367.5 280.4 371 280.9 373.3 281.45 375.95 284.1 382.25 286.45 387.8 286.8 391.3 289.25 396.7 294.1 409.3 294.8 411.75 297.05 415.15 299.9 419.45 300.5 420.7 301.9 423.1 304.15 428.1 306.4 433.1 307.8 435.5 308.85 437.3 310.65 441.05 312.35 444.35 314.1 446.2 314.8 446.95 320.8 454 324.8 458.75 328 461.3 330 463.95 333.65 469.6 337.05 474.55 340.1 477.2 341.5 478.65 344.65 481.65 347.1 484.4 347.3 487.2 346.4 489.1 343.65 490.35 342.15 491.05 339.1 492.4 334.35 495.45 328.8 498.2 327.85 498.85 315.55 508.05 307.5 514.05 301.5 516.8 299.5 518 296.75 520.05 295.2 521.15 292.1 523.4 288.2 526.35 281.8 530.6 273.2 536.3 271.3 537.6 268.8 539.6 263.85 543.75 259.45 547.3 256.1 549.4 254.7 550.3 252.5 552.3 250.15 554.5 249 555.3 247.75 556.15 245.2 557.8 243.05 559.35 242.1 561.1 242.9 561 244.6 560.9 246.1 560.75 247 560.3 257.1 555.7 267 554 268.15 553.9 270.5 553.7 272.5 553.5 273.9 553.1 277 552.25 284.8 551.55 291.75 550.85 295.5 549.5 302.95 546.7 307.9 546.6 311.95 546.55 322 546.65 330.95 546.7 336.1 546.6 338.75 546.4 343.1 547.95 347.85 549.6 350 549.7 351.85 549.75 355.5 550.7 359.05 551.6 361 551.6 364.75 551.65 369.75 553.2 372.65 554.1 378.3 556 380.4 556.65 383.75 558.75 387.25 560.95 389 561.6 390.4 561.65 391.8 560.55 393.35 559.05 394.1 558.4 396 556.5 401.25 553.6 406.15 550.85 408.2 548.5 418.35 541.95 423.1 535.4 425.7 533 429.45 530.65 431.5 529.35 436.3 526.6 438.1 525.55 441.9 522.7 445.4 520 447.6 518.9 455.15 515.05 459.2 512.4 463.8 509.4 472 505.65 482.15 501 485.1 499.4 486.7 498.75 486.9 496.7 485.6 496.4 483.25 496.05 480.7 495.7 479.7 495.5 476.1 493.65 471.7 490.6 471 490.1 464.1 485.1 463.4 484.6 462.05 482.2 460.95 480.25 459.5 479.9 454.65 478.15 452.8 475.5 450 471.6 448.6 469.65 446.15 466.2 444.8 463.6 443.5 461.7 438.7 456 434.8 451.4 433.1 448.1 430.65 443.3 429.45 440.85 427.35 436.55 426 433.4 425.3 431.7 423.5 428.95 421.55 426.05 420.9 424.6 419.7 421.15 415.75 411.35 412.45 403.15 411 398.1 406.65 388.15 405.4 378.7 404.55 375.8 403.25 369.4 402 363.25 401 360.1 399.35 352 399.1 350.4 398.2 344.85 398.4 340.5 397.65 337.1 397.65 330.45 397.65 323.5 397 320.3 396.75 315.7 396.8 303.85 396.85 293.35 396.3 287.3 396.15 263.9 396.15 263.85 396.2 250.4 396.9 240.3 397.75 234.8 397.6 230.3 397.4 227.1 398.3 221.75 399.3 215.6 399.4 213.3 399.55 207.75 401.3 200.3 401.75 198.35 401.45 194.05 401.1 189.95 401.8 187.8 402.4 185.65 402.4 182.3 402.45 179.85 404.1 174.85 405.65 170.15 405.5 167.4 405.3 163.2 407.25 157.5 409.7 151.15 410.6 147.9 415.05 137.6 417.4 132.5 421.45 123.6 425.3 117.6 426.25 115.95 427.5 112.75 428.8 109.3 429.6 107.8 431.35 104.7 435.5 95.35 439 87.45 441.9 83.2 453.45 62.3 455.8 58.65 464.4 45.05 474 37.2 Z"/>
</g>

<g id="outline_0_Layer0_0_MEMBER_0_FILL">
<path fill="#1A171B" stroke="none" d="
M 590.35 64.95
Q 588.25 61.75 586.6 59.7 576.9 47.5 576.65 47.2 570.6 40.3 564.7 36.7 562.65 35.65 559.85 34 556.7 32.05 555.1 31.1 552.45 29.45 547.75 27.9 541.5 25.75 540.2 25.2 537.9 24.1 532.9 23.3 530.1 22.95 524.95 21.7 519.55 20.4 517 20 511.3 20.7 508.45 21.05 503.35 21.7 500 22.4 499.7 22.5 496.1 23.85 493.75 24.7 492 24.6
L 473 24.6
Q 470.35 24.7 464.5 24.1 459 23.5 456 23.7 452.85 23.95 447.55 23.95 441.15 23.95 439 24 438.45 24 434.5 24.5 431.75 24.85 430 24.5 422.7 23.1 414 24.6 409.25 24.8 402.45 24.75 394.8 24.7 391 24.7 389.3 24.7 386.05 25.6 382.75 26.5 381 26.5
L 361.9 26.5
Q 360.7 26.5 358 27.4 355.5 28.2 354 28 350.25 27.7 347.3 30.5 339.1 38.15 334.1 43.45 327.15 50.85 322.4 57.7 319.3 61.65 315.55 67.95 311.45 75.1 309.3 78.6 307.45 81.2 304.85 86.15 301.95 91.6 300.5 93.8 298.15 97.55 295.55 103 294.05 106.15 291.2 112.5 289.6 117.75 286.45 125.05 284.7 129.15 281.1 137.3 276.85 148.8 272.4 164.5 271.85 168.25 270.2 174.1 268.05 181.75 267.6 183.7 267.2 187.7 265.45 194.95 263.55 202.65 263.1 206.2 262.85 208.2 261.55 214.75 260.45 220 260.4 223.3 259.4 227.8 258.55 237.6 257.7 247.05 256.5 251.9 255.8 255.2 255.8 261.1 255.85 267.75 255.5 270.4 255.1 278.25 255.4 287.2 256.05 292.55 258.1 302.7 260.25 313.2 260.9 318.2 265.2 334.85 266.55 340.5 269.65 353.05 271.7 362.9 274.45 369.7 279.8 385.1 284.8 399.55 288 407.2 289.05 411.25 292.25 416.7 297.15 424.95 297.5 425.7 299.3 429.5 302.5 435.75 306.35 443.15 307.6 445.7 312.8 453.1 323 463.3 323.95 464.8 326.1 467.65 328.25 470.5 329.2 472 330.35 474.15 334.6 478.45 338.4 482.3 339.5 485.3 336.2 488.45 328.1 493.1 320.15 497.7 316.8 501 314.8 502.25 309.15 506.45 304.45 509.95 301.3 511.6 293.7 515.75 285.4 522.7 279.3 526.2 271.25 531.9 266.65 535.2 257.5 541.8 255.1 544.05 247.65 549.95 241.4 554.95 238.1 558.4 236.85 559.7 234.1 562.15 231.7 564.4 230.6 566.4 230.05 568.75 232.5 570.3 235 571.85 236.9 570.2 242.75 565.55 252.2 563.3 255.2 562 260.25 560.5 266.7 558.6 268.4 558 281.4 556.2 287.9 555.6 291.5 555.7 296.9 554.5 304.7 552.75 305.8 552.6 309.1 551.55 314.85 551.55 321.65 551.6 324 551.2 327.55 550.55 332 551.15 334.8 551.5 339.8 552.8 345.35 554.35 352.95 555.15 353.4 555.2 366.3 556.2 372.3 558.7 383.9 564.6 385.1 565.2 387.45 567.1 389.55 568.5 391.4 567.6 393.9 565.95 398.45 561.8 402.95 557.75 405.6 556 408.25 554.95 409.6 554.15 411.75 552.95 413.1 551.4 414.5 549.85 417.65 547.9 421.1 545.75 422.3 544.6 430.35 537.4 440.5 531.8 441.8 531.1 443.95 529.25 446.15 527.4 447.3 526.7 449.85 525.05 455.4 522.2 460.8 519.45 463.4 517.7 468 514.75 477.75 510.05 487.65 505.35 492.2 502.4 497.35 499 507.1 495.6 517.4 492.75 530 484.4 532.25 482.7 536.05 481.3 538.2 480.5 542.5 479 545.5 478.35 549.05 476.25 551.15 475.05 555.1 472.4
L 566.65 460.85
Q 573.1 454.15 577.2 448.5 582.8 442.4 588.85 433.45 590.25 431.3 599.1 417.4 601.25 415.05 603.8 410.55 606.95 404.85 608 403.3 611.6 396.4 613.35 392.9 616.45 386.7 617.8 382 618.95 379.5 620.8 374.1 622.6 368.75 623.9 366.1 624.6 364.05 626.65 355.7 628.25 349.25 630.1 345.5 633.8 327.85 635.6 319 638.75 303.5 640.5 292.4 640.7 288.95 641.7 283.8 643.2 276 643.3 275.3 643.2 272.6 643.9 266.8 644.5 261.3 644.3 258.3 644.6 247.2 644.6 247.15 644.55 240.8 643.4 236.1 642.45 232.9 642.5 227.45 642.6 220.9 642.3 218.8 641.45 213.4 640 200.75 638.65 189.15 637.5 182.7 637.4 182.1 636.6 174.95 636.1 170.25 635.2 167.3 634.05 163.6 631.6 153.95 629.45 145.45 627.8 140.6 624.15 131.6 622.3 127.05 619.05 119.05 616.6 113.6 614.3 109.6 608.95 97.9 604.4 87.9 600.7 82.5 599.45 80.65 597.35 76.35 595.3 72.3 593.9 70.3 591.55 66.75 590.35 64.95
M 590 74.2
Q 591.95 78.1 598.6 89.75 604.05 99.35 606.7 105.5 607.7 108.1 610.65 114.1 613.25 119.55 614.4 122.8 616.25 127.65 620.6 137.15 624.2 145.65 625.1 151.9 629.2 165 631.1 176.3 631.15 180.25 632.2 185.5 632.8 188.55 634.2 194.6 634.05 199.4 635.45 208.9 636.85 218.45 636.7 223.3 636.8 227.25 638.35 238.3 639.7 247.65 639.2 253.3 638.35 257.15 638.4 263.25 638.45 271.45 638.3 273.3 637.85 276.65 636.05 286.75 634.55 295.15 634.1 300.3 632.6 306.4 630.8 316.3 628.5 329 627.8 332.3 625 342.1 622.7 351.3 621.6 355.75 618.5 364.4 615.4 373.05 614.3 377.5 607.9 393.85 598.3 409.6 596.9 411.85 593.25 417.05 590 421.8 588.3 424.6 586.6 426.9 580.9 435.65 576.4 442.5 573 446.3 571.65 447.45 569.35 450.65 567.15 453.6 565.5 454.8 565.05 455.15 561.25 458.55 558.7 460.8 556.8 462.1 555.25 463.15 552.15 466.4 549.35 469.35 547.3 470.5 529.1 476.45 518.3 483.6 514.6 486.5 509.05 488.5 505.95 489.65 499 491.4 495.6 492.1 491.15 491.4 489.7 491.2 483.4 489.7 483 489.45 478.55 487.25 475.6 485.8 474.1 484.2 471.25 482.05 469.85 480.95 467.25 478.95 466.3 476.9 465.5 475 463.05 474.35 460.05 473.85 458.7 473.5 457.5 472.8 456.45 471.3 455.3 469.5 454.7 468.6 452.15 464.7 448.25 459.65 443.6 453.9 441.3 451 437.8 446.45 433.65 437.95 428.65 427.7 426.7 424.5 425.35 422.1 423.75 417.9 421.75 412.55 421.1 411.1 419.8 408.5 418.05 402.8 416.35 397.2 414.9 394.5 410.55 382.95 409.2 373 407.8 367.85 407.1 365.25 405.95 360.65 405.7 357.3 405.6 355.9 404.35 352.8 403.25 350.05 403.4 348.3 403.6 342 402.7 338.3 402.5 334.6 402.6 328.25 402.7 321.05 402.6 318.3 402.5 316.9 402.6 308.8 402.6 303 401.8 299.3 401.7 292.5 401.6 290.85 401.4 286 400.9 282.3 401.5 266.5 401.5 266.3 400.9 258.7 401.5 254.9 401.8 252.75 401.7 248.15 401.65 243.7 402 241.4 402.65 238.35 402.6 231.8 402.55 225.45 403.3 222.2 403.95 219.8 404.25 214.9 404.55 210.05 405.2 207.7 406.2 203.1 406.7 196.05 407.4 185.2 407.5 184.4 408.4 180.7 408.9 175.6 409.35 169.65 409.6 166.7 410.2 164.45 411.65 161.05 413.6 156.55 414 155.5 416.15 148.4 420.45 139.25 425.65 128.75 428.2 123.5 431.3 118.3 434.9 110.45 438.85 101.45 440.9 97 442.45 92.95 446.65 85.85 451 78.45 452.5 74.8 454.25 72.1 458.1 65.4 461.6 59.35 463.8 56.1
L 467.95 51.25
Q 470.45 48.3 471.9 46.2 480.15 37.95 494.9 30.3 498.5 28.5 504.4 27.3 513.95 25.4 514.3 25.3 517.65 24.9 523.15 26.7 529.4 28.65 532 28.8 535.8 28.75 540.95 30.7 543.8 31.75 549.5 33.9 551.75 35.1 555.65 37.65 559.85 40.4 561.8 41.5 565.9 43.6 570.3 48.4 572.8 51.1 577.7 56.6 579.45 59.05 583.8 65.45 587.65 71.05 590 74.2
M 477.75 34.25
Q 474.45 36.75 474 37.2 464.4 45.05 455.8 58.65 453.45 62.3 441.9 83.2 439 87.45 435.5 95.35 431.35 104.7 429.6 107.8 428.8 109.3 427.5 112.75 426.25 115.95 425.3 117.6 421.45 123.6 417.4 132.5 415.05 137.6 410.6 147.9 409.7 151.15 407.25 157.5 405.3 163.2 405.5 167.4 405.65 170.15 404.1 174.85 402.45 179.85 402.4 182.3 402.4 185.65 401.8 187.8 401.1 189.95 401.45 194.05 401.75 198.35 401.3 200.3 399.55 207.75 399.4 213.3 399.3 215.6 398.3 221.75 397.4 227.1 397.6 230.3 397.75 234.8 396.9 240.3 396.2 250.4 396.15 263.85 396.15 263.9 396.3 287.3 396.85 293.35 396.8 303.85 396.75 315.7 397 320.3 397.65 323.5 397.65 330.45 397.65 337.1 398.4 340.5 398.2 344.85 399.1 350.4 399.35 352 401 360.1 402 363.25 403.25 369.4 404.55 375.8 405.4 378.7 406.65 388.15 411 398.1 412.45 403.15 415.75 411.35 419.7 421.15 420.9 424.6 421.55 426.05 423.5 428.95 425.3 431.7 426 433.4 427.35 436.55 429.45 440.85 430.65 443.3 433.1 448.1 434.8 451.4 438.7 456 443.5 461.7 444.8 463.6 446.15 466.2 448.6 469.65 450 471.6 452.8 475.5 454.65 478.15 459.5 479.9 460.95 480.25 462.05 482.2 463.4 484.6 464.1 485.1 471 490.1 471.7 490.6 476.1 493.65 479.7 495.5 480.7 495.7 483.25 496.05 485.6 496.4 486.9 496.7 486.7 498.75 485.1 499.4 482.15 501 472 505.65 463.8 509.4 459.2 512.4 455.15 515.05 447.6 518.9 445.4 520 441.9 522.7 438.1 525.55 436.3 526.6 431.5 529.35 429.45 530.65 425.7 533 423.1 535.4 418.35 541.95 408.2 548.5 406.15 550.85 401.25 553.6 396 556.5 394.1 558.4 393.35 559.05 391.8 560.55 390.4 561.65 389 561.6 387.25 560.95 383.75 558.75 380.4 556.65 378.3 556 372.65 554.1 369.75 553.2 364.75 551.65 361 551.6 359.05 551.6 355.5 550.7 351.85 549.75 350 549.7 347.85 549.6 343.1 547.95 338.75 546.4 336.1 546.6 330.95 546.7 322 546.65 311.95 546.55 307.9 546.6 302.95 546.7 295.5 549.5 291.75 550.85 284.8 551.55 277 552.25 273.9 553.1 272.5 553.5 270.5 553.7 268.15 553.9 267 554 257.1 555.7 247 560.3 246.1 560.75 244.6 560.9 242.9 561 242.1 561.1 243.05 559.35 245.2 557.8 247.75 556.15 249 555.3 250.15 554.5 252.5 552.3 254.7 550.3 256.1 549.4 259.45 547.3 263.85 543.75 268.8 539.6 271.3 537.6 273.2 536.3 281.8 530.6 288.2 526.35 292.1 523.4 295.2 521.15 296.75 520.05 299.5 518 301.5 516.8 307.5 514.05 315.55 508.05 327.85 498.85 328.8 498.2 334.35 495.45 339.1 492.4 342.15 491.05 343.65 490.35 346.4 489.1 347.3 487.2 347.1 484.4 344.65 481.65 341.5 478.65 340.1 477.2 337.05 474.55 333.65 469.6 330 463.95 328 461.3 324.8 458.75 320.8 454 314.8 446.95 314.1 446.2 312.35 444.35 310.65 441.05 308.85 437.3 307.8 435.5 306.4 433.1 304.15 428.1 301.9 423.1 300.5 420.7 299.9 419.45 297.05 415.15 294.8 411.75 294.1 409.3 289.25 396.7 286.8 391.3 286.45 387.8 284.1 382.25 281.45 375.95 280.9 373.3 280.4 371 278.9 367.5 277.05 363.15 276.6 361.8 275.9 359.2 274.85 353.9 273.8 348.6 273.1 346 271.45 341.75 269.9 334.55 267.9 325.4 267.2 322.9 265.65 315.6 264.95 311.95 263.7 305.6 263.2 300.8 262.3 298.3 261.9 294.85 261.5 290.8 261.3 288.8 260.3 284.65 260.2 279.6 260.15 275.8 260.7 270.3 260.9 255.45 263.1 245.3 266.25 211.85 272.4 188.5 274.1 177.5 278.2 163.75 280.05 157.6 286.1 139.5 287.4 135.5 291.35 127.05 295.1 119.1 296.4 114.5 299.6 105.85 305.4 95.5 307.8 91.2 316.2 77.4 316.65 76.7 322.2 67.5 325.75 61.55 328.9 58.2 329.95 57.05 332.15 53.95 334.1 51.15 335.5 49.8 337.5 47.9 340.7 44.5 344.4 40.5 345.8 39.1 346.8 37.75 349.5 37.75 352.45 37.65 353.5 36.8 359.15 33.45 368.9 33.05 383.2 32.45 385 32.1 391.65 32.35 402 30.7 415.15 30.7 441.45 30.65 464.7 30.6 480.9 30.8 480.1 32.5 477.75 34.25 Z"/>
</g>

<g id="outline_0_Layer0_0_MEMBER_1_FILL">
<path fill="#1A171B" stroke="none" d="
M 457.7 74
Q 456.4 75.5 455 78.8 453.45 82.3 452.4 83.7 443.1 95.9 439.8 107.3 439.35 109.6 438 113.3 436.45 117.65 436 119.3 435.65 120.7 434.75 123.65 434.25 126.25 435.3 128 436.9 128.25 438.15 127.5 439.5 126.7 439.7 125.1 442.5 115 444 110.4 446.7 102.25 449.9 96.2 450.9 94.65 454.1 90.35 456.8 86.7 458.1 84.3 460 81 460.75 79.2 462.1 76.15 461.7 73.6 460.35 73.5 459.65 73.45 458.4 73.45 457.7 74 Z"/>
</g>

<g id="outline_0_Layer0_0_MEMBER_2_FILL">
<path fill="#1A171B" stroke="none" d="
M 464.6 86.8
Q 462.4 88.95 460.45 93.35 457.9 98.95 457 100.3 450.95 109.5 446.4 120.5 445.75 122.35 444.45 126.1 443.3 129.25 442.2 131.5 441.45 132.75 441.5 134.25 441.55 135.7 442.3 137 443.4 136.9 445.6 136.9 447.3 134.1 449.1 128.4 451.05 122.25 452.4 119.7 453.2 118.3 454.35 115.6 455.6 112.6 456.2 111.4 458.2 108.35 461.5 102.2 464.85 95.85 466.7 93 468.15 90.6 468.35 90.1 469.1 88.35 468.3 87 466.9 86.25 464.6 86.8 Z"/>
</g>

<g id="outline_0_Layer0_0_MEMBER_3_FILL">
<path fill="#1A171B" stroke="none" d="
M 470.45 109.35
Q 473.75 105.65 474.7 103.2 475.2 101.4 473.55 100.7 472 100.05 470.5 100.8 469.4 102.55 464.05 109.9 459.95 115.5 458 119.3 449.4 132.85 447.7 149.3 447.9 151.65 450.4 151.55 452.85 151.4 453.1 149.1 454.7 140.75 456.1 135.85 458.15 128.7 461.1 123.3 463.15 120.4 463.8 119.5 465.2 117.3 466 115.4 467 113.2 470.45 109.35 Z"/>
</g>

<g id="outline_0_Layer0_0_MEMBER_4_FILL">
<path fill="#1A171B" stroke="none" d="
M 479.5 115.7
Q 465.2 135.35 465.05 135.65 457.2 147.35 454 157.5 453.6 159.05 452.7 162.3 452.15 165.15 452.9 167.2 453.65 168.8 455.75 168.35 457.8 167.9 457.8 166.1 461.4 146.9 471.4 134.7 472.95 131.7 476.95 127.25 481.25 122.4 482.7 120 484.05 118.3 482.7 115.6 481.6 115.7 479.5 115.7 Z"/>
</g>

<g id="outline_0_Layer0_0_MEMBER_5_FILL">
<path fill="#1A171B" stroke="none" d="
M 479.2 145.5
Q 479.85 144.15 482.35 141.5 484.55 139.1 485.1 137.3 485.55 135.15 483.4 134.4 481.25 133.65 480.1 135.4 474.95 142.15 469.9 152.1 468.3 155.2 461.5 169.8 460.55 172.6 458.3 178.25 456.6 183.2 457.3 187.1 458.8 187.55 459.45 187.55 460.65 187.55 461.3 186.6 462.35 184.65 463.25 181.8 464.2 178.45 464.7 176.8 465.5 173.8 467.5 169.35 470.15 163.4 470.7 162 472 158.35 474.65 153.55 476.15 150.85 479.2 145.5 Z"/>
</g>

<g id="outline_0_Layer0_0_MEMBER_6_FILL">
<path fill="#1A171B" stroke="none" d="
M 494.9 146.5
Q 492.95 146.5 492.5 146.6 491.15 146.8 490.5 147.8 481.85 158.4 476.1 168.4 471 179.2 469.2 183.55 465.55 192.2 463.7 199.3 462.6 201.55 464.9 202.6 467.2 203.65 468.2 201.4 469.55 198.55 471.25 192.45 472.95 186.3 474.3 183.4 474.65 182.75 477.7 175.95 479.75 171.45 481.4 168.7 482.25 167.15 484.1 164.2 485.7 161.55 486.3 159.5 486.75 157.9 488.7 156.5 491.4 154.55 491.8 154.1 492.65 153.05 494.65 150.65 496 148.4 494.9 146.5 Z"/>
</g>

<g id="outline_0_Layer0_0_MEMBER_7_FILL">
<path fill="#1A171B" stroke="none" d="
M 488.4 181.5
Q 490.1 177.8 490.85 175.9 492.2 172.55 491.2 169.9 489.1 169.55 487.75 171.9 486.55 174.9 485.9 176 479.4 188.45 476.1 201.7 475.75 202.95 474.8 205.45 474.15 207.65 474.5 209.3 475.1 210.6 476.35 210.75 477.6 210.9 478.4 209.7 479.9 207.2 481 202.55 482.4 196.8 483 195.2 483.75 192.8 485.7 188.3 487.65 183.75 488.4 181.5 Z"/>
</g>

<g id="outline_0_Layer0_0_MEMBER_8_FILL">
<path fill="#1A171B" stroke="none" d="
M 487.8 215
L 489.7 214.5 490.7 215.3 490.9 211.2 494.2 210.8
Q 493.6 210.6 490 209.8 490 209 489.7 207.2 488.35 209.85 487.8 215 Z"/>
</g>

<g id="outline_0_Layer0_0_MEMBER_9_FILL">
<path fill="#1A171B" stroke="none" d="
M 539.35 137.8
Q 532.65 138.65 529.4 139 524.95 140.2 522.8 140.95 519.05 142.2 516.6 144 513.65 145.8 510.2 149.55 506.5 153.8 504.5 155.8 503.05 157.25 501.8 160.15 500.1 164.1 499.6 164.9 497.75 167.9 495.9 172.85 493 180.65 492.8 181.1 491.1 184.9 488.9 192.6 486.65 200.55 485.1 204.2 483.85 209.7 481.05 220.65 478.75 230.3 478.3 237.3 478.3 258.8 478.4 263.1 478.7 265.85 479.9 273.25 480.85 279.65 481.2 283.4 482.1 286.95 482.75 294.4 483.45 301.8 484.4 305.5 484.55 308.65 485.8 314.85 487.05 321.1 487.2 324.3 488.6 332.95 493.2 340.1 494.3 341.95 496.5 345.7 498.5 348.8 500.7 350.6 504.35 353.65 509.55 356.15 513.15 357.85 519.3 360.1 521 360.7 523.6 360.75 525.1 360.75 528 360.7 531.6 360.7 535.8 358.4 538.2 357.1 542.8 354.1 550.85 349.2 557.75 339.15 559.4 336.65 568.6 320.8 575.4 305.45 579.05 295.05 584.1 280.65 586 268.2 587.6 262.4 588.5 252.85 589.7 240.5 590.2 237.3 591.45 209.4 584 178.1 577.8 163.65 576.1 159.1 569.05 148.15 558.6 141.8 557 141.15 553.8 140.45 550.55 139.8 549.1 139.2 545.1 137.4 539.35 137.8
M 545 143.2
Q 548.6 143.6 552.85 145.45 554.65 146.2 560.2 149.1 561.6 149.8 562.9 151.4 563.65 152.35 565 154.3 565.8 155.35 567.45 156.85 569.35 158.6 570 159.3 572.1 162.85 574.4 169.1 577.3 176.95 578.3 179.1 579.65 183.95 580.9 190.55 581.65 194.4 583 202.1 584.5 206.55 584.45 215.2 584.35 224.35 585.4 228.4 585.25 230.2 584.7 233.8 584.25 237.1 584.5 239.3 583.9 244.5 582.75 255 581.55 264 579.9 270.5 579.3 277.75 575.7 287.8 571.55 302.75 561.6 322.8 557.9 328.9 555 334.3 544.65 349.35 531.6 354.7 528 356.15 523.8 355.65 519.95 355.2 516.2 353.3 510.35 350.85 506.8 348.35 501.95 344.9 499.7 340.5 497.4 336.55 496.35 334.55 494.5 331 494.2 328.1 494.95 327.6 496.6 326.6 497.95 325.65 498.2 324.3 500.45 317.75 501.5 314.45 503.35 308.55 503.4 304.2 504.8 296.3 504.8 285.3 505.55 280.3 505.6 273.3 505.55 265.3 505.6 261.3 503.7 243.2 502.25 235.4 499.5 221.05 494.2 210.8 493.6 210.6 490 209.8 490 209 489.7 207.2 491.9 197 494.7 191 497.35 183.45 498.7 179.7 501.1 173.1 503.6 168.8 504.7 166.8 506.6 162.5 508.45 158.8 510.7 157 511.05 156.75 515.45 152.05 518.25 149.05 521 148.2 521.65 148 527.8 145.05 531.9 143.1 535 143.1 543.35 143.1 545 143.2
M 483.9 263.5
Q 482.65 250.6 483.6 239.4 484.35 228.7 487.8 215
L 489.7 214.5 490.7 215.3
Q 492.95 219.4 494.65 226.2 497.4 237.1 497.5 237.5 498.1 239.6 498.4 244.4 498.65 248.9 499.5 251.3 500.45 262.35 500.5 263.75 500.9 270.85 500.4 276.3 499.8 279.9 499.8 287.45 499.75 294.85 499.1 298.6 498.7 300.35 498.35 305.15 498.05 309.3 497.2 311.6 496.6 313.2 495.7 316.6 494.8 319.5 493.4 321.1 490.15 313.6 489.3 302.7 487.3 295 487.6 287.3 484.9 274.05 483.9 263.5 Z"/>
</g>

<g id="outline_0_Layer0_0_MEMBER_10_FILL">
<path fill="#1A171B" stroke="none" d="
M 559.1 356
L 560.7 356.5 561.2 359.3
Q 561.45 357.8 564.2 354.85 566.6 352.3 566.1 350.2 563.95 349.85 562.1 352.1 560.15 354.95 559.1 356 Z"/>
</g>

<g id="outline_0_Layer0_0_MEMBER_11_FILL">
<path fill="#1A171B" stroke="none" d="
M 522.7 372.1
Q 521.55 374.1 523.25 375.85 524.75 377.45 527 377.6 537.6 378.45 550.4 368.7 551.6 367.6 555.95 364.15 559.45 361.4 561.2 359.3
L 560.7 356.5 559.1 356
Q 557.2 356.9 554.7 359.3 551.75 362.1 550.6 362.9 545.45 366.8 542.75 368.55 538.1 371.55 534 372.5 532.4 372.9 528.3 371.95 524.65 371.15 522.7 372.1 Z"/>
</g>

<g id="outline_0_Layer0_0_MEMBER_12_FILL">
<path fill="#1A171B" stroke="none" d="
M 543.5 386.7
Q 539.9 388.95 538.05 390.05 534.75 392.05 532 392 530.25 391.95 529.5 393.2 528.75 394.35 529.2 396 531.8 397.1 535.3 396 536 395.75 541.1 393.5 548.5 389 548.8 388.8 553.1 385.95 555.6 382.9 556.55 381.55 559.65 380.45 562.6 379.35 563.5 377.8 564.9 375.5 565.5 374.3 566.45 372.3 566.8 370.5 563.7 371.5 559.35 375.3 554.65 379.4 552.2 380.5 550.85 381.3 547.95 383.7 545.3 385.85 543.5 386.7 Z"/>
</g>

<g id="outline_0_Layer0_0_MEMBER_13_FILL">
<path fill="#1A171B" stroke="none" d="
M 566.8 381.1
Q 564.7 383.05 562 386.3 559.05 390 557.5 391.8 556.4 392.75 554.35 394.15 551.9 395.8 551.1 396.4 546.8 399.7 544.55 401.25 540.6 404 537.1 404.3 535.3 404.35 534.75 406 534.2 407.5 535.2 409 538.25 409.6 539.8 408.9 545.5 406.85 551.95 402.05 555.7 399.25 562.9 393.2 566.65 388.4 567.3 387.35 569.45 383.7 569 380.4
L 566.8 381.1 Z"/>
</g>

<g id="outline_0_Layer0_0_MEMBER_14_FILL">
<path fill="#1A171B" stroke="none" d="
M 573.1 383.4
L 573.1 386.3
Q 574.4 386.65 575.2 385.7 575.8 384.9 575.9 383.5
L 573.1 383.4 Z"/>
</g>

<g id="outline_0_Layer0_0_MEMBER_15_FILL">
<path fill="#1A171B" stroke="none" d="
M 563 396.3
Q 560.95 399 559.9 400.2 549.6 408.3 542.8 413.1 539.7 414.3 538.3 415.05 535.75 416.35 536.3 418.9 537.8 419.5 538.6 419.65 539.95 419.85 541 419.3 545.2 417.55 549.7 414.2 552.85 411.9 557.5 407.7 558.65 406.75 561.25 403.5 563.45 400.75 565.3 399.7 570.6 395.35 567.1 393.7 564.9 394.15 563 396.3 Z"/>
</g>

<g id="outline_0_Layer0_0_MEMBER_16_FILL">
<path fill="#1A171B" stroke="none" d="
M 576.2 401.3
L 578.8 401.6 579.3 404.4
Q 580.65 400.45 580.8 397.4 579.3 397.65 578.1 398.85 577.25 399.65 576.2 401.3 Z"/>
</g>

<g id="outline_0_Layer0_0_MEMBER_17_FILL">
<path fill="#1A171B" stroke="none" d="
M 576.2 401.3
Q 573.4 403.6 574.3 406.9 575.4 406.8 577.5 406.8
L 579.3 404.4 578.8 401.6 576.2 401.3 Z"/>
</g>

<g id="outline_0_Layer0_0_MEMBER_18_FILL">
<path fill="#1A171B" stroke="none" d="
M 565 412.7
Q 562.65 414.35 557.35 419.45 552.7 423.9 549.4 425.7 547.8 427.2 544.45 428.65 540.6 430.3 539.3 431.2 539.9 433.3 540.2 434 543.4 434.45 546.45 433.4 549.45 432.4 551.8 430.1 553.25 428.75 557.55 425.35 561.2 422.45 563.1 420.4 564.1 419.3 566.25 416.95 567.85 414.8 567.6 412.7
L 565 412.7 Z"/>
</g>

<g id="outline_0_Layer0_0_MEMBER_19_FILL">
<path fill="#1A171B" stroke="none" d="
M 575.5 418.8
Q 574.75 419.65 571.95 423.15 569.75 425.8 568.2 427.3
L 569.6 427.7 570.1 430.2
Q 570.9 428.1 574.1 425.2 577.35 422.25 578.2 420.3 578.8 419 577.6 418.65 576.55 418.35 575.5 418.8 Z"/>
</g>

<g id="outline_0_Layer0_0_MEMBER_20_FILL">
<path fill="#1A171B" stroke="none" d="
M 570.1 430.2
L 569.6 427.7 568.2 427.3
Q 566.35 428.15 564.2 430.3 561.85 432.8 560.6 433.9 555.6 438.25 553 440.4 548.5 444.15 544.9 446.2 543.55 446.65 543.3 448.2 543.2 448.75 543.3 450.9 544.2 450.9 546.15 451 547.8 450.9 548.7 449.9 550 448.7 555 444.8 559 441.7 561.1 439.4 561.7 438.75 566 435.15 569.05 432.6 570.1 430.2 Z"/>
</g>

<g id="outline_0_Layer0_0_MEMBER_21_FILL">
<path fill="#1A171B" stroke="none" d="
M 571.5 443.4
Q 571.7 440.95 569 441.7 562.65 447.6 559.4 450.45 553.7 455.5 549.1 458.3 548.3 458.7 545.1 459.5 542.6 460.1 541.4 461.2 541.7 463.35 543.75 464.2 545.8 465.05 547.7 464 553.25 462.05 559.35 456.5 562.8 453.4 569.5 446.9 571.3 445.8 571.5 443.4 Z"/>
</g>
</defs>

<g id="fill2" transform="matrix( 1, 0, 0, 1, 225,45.95) ">
<g transform="matrix( 0.753173828125, 0, 0, 0.753173828125, -301.95,-19) ">
<use xlink:href="#fill2_0_Layer0_0_FILL"/>
</g>
</g>

<g id="fill1" transform="matrix( 1, 0, 0, 1, 291.9,134.75) ">
<g transform="matrix( 0.753173828125, 0, 0, 0.753173828125, -368.85,-107.8) ">
<use xlink:href="#fill1_0_Layer0_0_FILL"/>
</g>
</g>

<g id="fill3" transform="matrix( 1, 0, 0, 1, 105.4,50.05) ">
<g transform="matrix( 0.753173828125, 0, 0, 0.753173828125, -182.35,-23.1) ">
<use xlink:href="#fill3_0_Layer0_0_FILL"/>
</g>
</g>

<g id="outline" transform="matrix( 1, 0, 0, 1, 96.65,42) ">
<g transform="matrix( 0.753173828125, 0, 0, 0.753173828125, -173.6,-15.05) ">
<use xlink:href="#outline_0_Layer0_0_MEMBER_0_FILL"/>
</g>

<g transform="matrix( 0.753173828125, 0, 0, 0.753173828125, -173.6,-15.05) ">
<use xlink:href="#outline_0_Layer0_0_MEMBER_1_FILL"/>
</g>

<g transform="matrix( 0.753173828125, 0, 0, 0.753173828125, -173.6,-15.05) ">
<use xlink:href="#outline_0_Layer0_0_MEMBER_2_FILL"/>
</g>

<g transform="matrix( 0.753173828125, 0, 0, 0.753173828125, -173.6,-15.05) ">
<use xlink:href="#outline_0_Layer0_0_MEMBER_3_FILL"/>
</g>

<g transform="matrix( 0.753173828125, 0, 0, 0.753173828125, -173.6,-15.05) ">
<use xlink:href="#outline_0_Layer0_0_MEMBER_4_FILL"/>
</g>

<g transform="matrix( 0.753173828125, 0, 0, 0.753173828125, -173.6,-15.05) ">
<use xlink:href="#outline_0_Layer0_0_MEMBER_5_FILL"/>
</g>

<g transform="matrix( 0.753173828125, 0, 0, 0.753173828125, -173.6,-15.05) ">
<use xlink:href="#outline_0_Layer0_0_MEMBER_6_FILL"/>
</g>

<g transform="matrix( 0.753173828125, 0, 0, 0.753173828125, -173.6,-15.05) ">
<use xlink:href="#outline_0_Layer0_0_MEMBER_7_FILL"/>
</g>

<g transform="matrix( 0.753173828125, 0, 0, 0.753173828125, -173.6,-15.05) ">
<use xlink:href="#outline_0_Layer0_0_MEMBER_8_FILL"/>
</g>

<g transform="matrix( 0.753173828125, 0, 0, 0.753173828125, -173.6,-15.05) ">
<use xlink:href="#outline_0_Layer0_0_MEMBER_9_FILL"/>
</g>

<g transform="matrix( 0.753173828125, 0, 0, 0.753173828125, -173.6,-15.05) ">
<use xlink:href="#outline_0_Layer0_0_MEMBER_10_FILL"/>
</g>

<g transform="matrix( 0.753173828125, 0, 0, 0.753173828125, -173.6,-15.05) ">
<use xlink:href="#outline_0_Layer0_0_MEMBER_11_FILL"/>
</g>

<g transform="matrix( 0.753173828125, 0, 0, 0.753173828125, -173.6,-15.05) ">
<use xlink:href="#outline_0_Layer0_0_MEMBER_12_FILL"/>
</g>

<g transform="matrix( 0.753173828125, 0, 0, 0.753173828125, -173.6,-15.05) ">
<use xlink:href="#outline_0_Layer0_0_MEMBER_13_FILL"/>
</g>

<g transform="matrix( 0.753173828125, 0, 0, 0.753173828125, -173.6,-15.05) ">
<use xlink:href="#outline_0_Layer0_0_MEMBER_14_FILL"/>
</g>

<g transform="matrix( 0.753173828125, 0, 0, 0.753173828125, -173.6,-15.05) ">
<use xlink:href="#outline_0_Layer0_0_MEMBER_15_FILL"/>
</g>

<g transform="matrix( 0.753173828125, 0, 0, 0.753173828125, -173.6,-15.05) ">
<use xlink:href="#outline_0_Layer0_0_MEMBER_16_FILL"/>
</g>

<g transform="matrix( 0.753173828125, 0, 0, 0.753173828125, -173.6,-15.05) ">
<use xlink:href="#outline_0_Layer0_0_MEMBER_17_FILL"/>
</g>

<g transform="matrix( 0.753173828125, 0, 0, 0.753173828125, -173.6,-15.05) ">
<use xlink:href="#outline_0_Layer0_0_MEMBER_18_FILL"/>
</g>

<g transform="matrix( 0.753173828125, 0, 0, 0.753173828125, -173.6,-15.05) ">
<use xlink:href="#outline_0_Layer0_0_MEMBER_19_FILL"/>
</g>

<g transform="matrix( 0.753173828125, 0, 0, 0.753173828125, -173.6,-15.05) ">
<use xlink:href="#outline_0_Layer0_0_MEMBER_20_FILL"/>
</g>

<g transform="matrix( 0.753173828125, 0, 0, 0.753173828125, -173.6,-15.05) ">
<use xlink:href="#outline_0_Layer0_0_MEMBER_21_FILL"/>
</g>
</g>
</svg>
