
<svg xmlns="http://www.w3.org/2000/svg" version="1.1" xmlns:xlink="http://www.w3.org/1999/xlink" preserveAspectRatio="none" x="0px" y="0px" width="500px" height="500px" viewBox="0 0 500 500">
<defs>
<g id="fill4_0_Layer0_0_FILL">
<path fill="#FFFFFF" stroke="none" d="
M 351 352.45
Q 345.6 350.3 337.7 348 328.65 345.5 324.15 344.15 311.1 341.4 304.5 340.1 292.9 337.8 284.65 337.55 281.8 337.05 275.05 337.3 268.85 337.55 265.5 336.65 242.95 336.05 226.75 338.7 192.55 345 166.85 359.5 161.7 361.2 155.55 365.05 151.95 367.3 144.95 372.05 121.2 388.45 107.1 402 89.85 417.9 79.35 431.25 65.7 448.55 59.4 466.1 72.05 473.9 85.35 479.45 87.35 479.95 91.3 482.25 95 484.45 97.3 484.85 99.9 486.25 103.9 487.35 106.2 488 110.8 489.15 113.1 490.05 117.5 492.2 121.5 493.95 124.5 494.3 140 497.5 160.2 499.3 170.05 500.15 196.2 501.7 206.4 503.4 221.45 501.25 229.8 500.05 246.5 497.6 248.9 497.05 253.7 495.95 258 495 260.85 494.1 261.8 493.15 264.4 488.95 266.45 485.65 268.65 484.55 271.2 483.8 272.5 486.5 273.25 488 273.95 491.3 280.75 489.95 289.55 486.95 294.65 485.2 304.75 481.4 314.25 478.25 325.4 471.2 326.85 470.3 344.35 458.15 347.95 455.55 356.6 450.1 364.55 445.1 368.7 441.9 370.75 440.3 375.1 436.25 379.15 432.55 381.55 430.7 386.65 426.3 392.75 419.1 399.6 410.75 403.05 406.65 403.95 403.4 402.75 399.1 401 394.2 400.2 391.8 398.5 388.75 394.3 382.95 390.1 377.25 388.4 374.1 384.65 369.15 379.75 366.8 374.9 362.4 365.9 358.65 351.25 352.6 351 352.45 Z"/>
</g>

<g id="fill5_0_Layer0_0_FILL">
<path fill="#FFFFFF" stroke="none" d="
M 201.5 371.5
Q 187.7 374.4 180.8 377.8 160.15 385.85 141.5 404.35 137.85 407.7 128.15 413.7 119.15 419.25 115.1 423.5 111.1 428.7 109.7 430.95 106.85 435.3 105.65 439.2 104.25 443.2 106.7 448.4 108.1 451.3 111.1 456.95 113.45 465 119.95 473.35 121.95 477.4 127.4 480.3 130.45 481.9 136.75 484.85 147.55 488.35 156.6 488.9 161.5 490.15 168.55 489.9 172.6 489.8 180.6 489.25 187.8 488.35 200.55 482.7 213.6 476.85 220.45 475.8 227.55 473.8 237 472.55 240.6 472.1 253.8 470.8 272.95 466.2 281 463.7 296.05 459 306.8 452.65 312.9 447.95 318.8 440.8 323.05 435.7 328.8 427.25 330.3 424.05 330.85 422.6 331.8 419.9 331.85 417.65 332.5 412.35 332.15 408.9 331.6 404 329 400.9 326.5 399.1 321.3 396.6 315.85 393.95 313.55 392.4 310.25 391.05 309 387.35 307.85 383.85 309.1 380.4 310.8 375.85 309.55 371.05 308.25 366.05 304.25 363.5 301.05 360.2 296 357.95 292.7 356.5 286.55 354.75 281.4 352.5 272.6 353.25 252.25 353.75 232.7 362.5 230.95 363.25 227.55 364.15 224 365.1 222.4 365.75 216.2 368.45 201.5 371.5 Z"/>
</g>

<g id="fill1_0_Layer0_0_FILL">
<path fill="#FFFFFF" stroke="none" d="
M 223.65 538.75
Q 219.2 529.6 215.9 525.4 206.7 539.9 202 562.15 200.4 576.3 201.95 594.6 202.4 599.5 204.2 606.4 205.25 610.3 207.35 618.05 211.55 628 218.4 635.6 225.7 643.7 235 647.7 239.25 649 247.6 652.3 255.1 654.9 260.65 654.65 274.6 652.75 285.55 648.15 289.5 646 294.45 642.1 300.05 637.55 302.85 635.3 305.7 633.2 310.25 628.2 314.9 623.1 317.55 621.05 325.4 612.7 332.05 598.75 339.15 582.3 342.8 574.2 343.45 572.35 346.5 565.25 348.85 559.8 349.75 556.15 349 557.75 344.6 565.5 344.75 567.55 343.1 569.25 341.55 570.8 339.5 571.15 338.6 569.35 338.7 565.95 338.8 561.7 338.55 560.5 337.7 560.95 329.25 566.25 323.65 569.8 319.45 570.8 319.5 568.75 318.4 564.7 317.35 560.75 317.5 558.6 317.55 555.85 317.5 554.5 317.4 552.05 315.5 551.4 313.15 553.35 305.95 559 299.9 563.65 296.55 566.75 293.7 568.75 288.6 573.75 283.6 578.7 280.6 580.75 281 581.75 281.75 583.75 282.5 585.45 283.6 586.3 281.9 587.5 280.5 589.2 281.7 590.25 281.35 592.2
L 280.3 593.25
Q 280.7 594.05 281.65 595.95 282.6 597.4 284.05 597.25 285.3 597.1 286.5 597.8 287.8 598.6 287.65 599.8 286.5 599.7 284.4 598.65 282.25 597.6 281.1 597.45 280.35 597.8 280.1 599.25 279.8 600.7 279.1 601.1 278.45 601.85 277.35 601.45 276.05 600.8 275.45 600.7 273.3 601.25 272.2 601.55 270.3 602.1 269 602.6 269.3 600.9 271.85 600.35
L 276.05 599.4
Q 276.25 598.25 277.35 597.25 278.7 596.15 279.25 595.5
L 278.1 593.05 279.55 591.1
Q 278.65 590.45 278.2 590.05 277.45 589.45 277.15 588.8
L 279.4 586.35
Q 275.85 582.7 273.15 576 270.4 568.3 268.7 564.6 265 558.1 264.05 555.6 249.35 563.5 241.8 566.9 239.2 567.85 237.05 563.7 236.3 562.05 234.05 558.05 232.05 554.5 231.2 552.3 228.25 548.3 223.65 538.75 Z"/>
</g>

<g id="fill1_0_Layer0_1_FILL">
<path fill="#FFFFFF" stroke="none" d="
M 497.2 535.8
Q 497.25 537.1 498.05 538.7 498.5 539.6 499.45 541.4 503.05 549.75 504.2 562.75 504.85 570.05 505.9 584.65 502.35 583.95 495.95 581.5 489.25 578.85 486.05 578.15 485.55 579.5 479.9 598.4 476.2 610.6 472.2 618.05 470.65 620.95 471.15 625.65 471.85 632.4 471.75 633.5 473.2 632.8 473.8 633.8 474.35 634.75 473.8 636.15 474.7 636.8 474.8 638 474.9 639.3 473.75 639.55 473.05 638.8 472.8 637.4 472.65 635.75 472.5 634.95 470.4 634.2 470.35 631.05 470.7 627.4 470.4 625.95 467.4 625.6 465.85 629.15 463.8 633.85 462.8 634.6
L 462.45 636.8
Q 460.9 636.05 461.45 634.6 461.9 633.4 463.25 632.5 464.35 629.15 465.15 627.75 466.65 625.2 468.95 624.6 470 621.75 466.55 620.25 461.35 617.95 461 617.55 456.85 616 451.7 613.15 445.8 609.7 442.8 607.95 441.65 609.7 439.65 613.3 437.6 616.9 436.45 618.6 435.2 620.95 434.7 621.55 433.45 623.1 431.9 623.15 428.8 621.7 421.35 616.35 414.9 611.65 410.55 610.35 410.4 613.8 411.05 616.5 410.15 617 408.8 616.7 407.25 616.25 406.5 616.1 395.25 613.55 381.4 609.65 397.6 632.45 426.05 649.9 442.95 661.3 457.65 664
L 457.25 664.95
Q 467.95 665.8 474.3 665.7 483.7 665.5 491.15 663.45 502.55 659.3 507.85 652.45 509.85 650.55 511.1 646.55 512.7 641.25 513.35 640.1 516.25 629.7 516.7 615.2 516.65 598.35 516.7 589.95 515.8 579.55 512.15 568.3 509.05 558.8 503.65 547.85 502.2 542.1 497.2 535.8 Z"/>
</g>

<g id="fill2_0_Layer0_0_FILL">
<path fill="#FFFFFF" stroke="none" d="
M 513.05 176.05
Q 501.9 180.7 496.3 183.5 487.15 188 480.55 192.85 478.7 193.95 475.9 197.15 473.1 200.35 471.2 201.4 462.1 210.3 456.35 215.1 447.75 222.25 439.65 226.5 425.8 236.5 413.95 243.3 405.45 248.5 401.15 251.05 393.6 255.55 387.9 257.9 387.15 258.15 367.8 264.95 355.75 269.25 347.4 270.9 345.45 271.2 337.7 273.25 331.75 274.8 327.8 274.65 319 274.75 289.95 274.85 266.4 274.9 252.05 275.3 249.55 275.7 244.95 275.2 240.1 274.65 237.85 274.9 230.4 275.45 226.65 275.85 220.15 276.5 215.7 277.85 190.65 281.5 171.45 289.1 144.95 298.1 128.65 308.35 98.7 324.2 75.7 345.3 70.3 349.3 63.8 355.6 60.05 359.3 52.75 366.75 51.55 368.6 48.2 372.05 45 375.35 43.75 377.4 40.95 380.55 35.25 386.85 30.5 392.35 27.75 397.1 26.35 399.75 25.2 404 24.55 406.4 23.25 411.15 22 416.45 22.65 423.9 23 428.15 24.1 436.65 26.55 444.8 34.05 453.8 38.35 458.95 47.45 468.8 52.95 474.15 61.6 479.3 63.1 480.2 77.1 487.8 86.3 493.9 94.3 497.05 97.65 499.2 103.35 500.7 112.75 503.15 112.85 503.2 136.2 508.5 160.35 510.25 164.6 511.6 170.4 512 172.15 512.15 180.6 512.4 187.7 513.2 197.55 513.15 203.2 513.15 214.5 512.9 219.15 512.4 239.95 509.55 241.95 508.45 246.9 507.65 251.55 506.85 253.7 505.45 255.1 503.25 257.8 498.65 253.15 500.15 246.05 501.65 238.15 503.2 234.2 504.1 233.95 504.1 223.1 505.5 216.45 506.35 212 505.95 199.85 507.05 188.55 505.45 165.85 503.25 149.85 502.2 148.55 502.05 141.25 500.6 136.05 499.55 132.6 499.6 120.5 498.05 108.65 493.25 100.45 490.25 97.15 488.95 90.75 486.4 85.95 483.9 84.55 483.15 73.5 477.7 65.95 474 61.35 470.95 54.8 467.4 50.4 464.25 44.7 460.2 40.9 455.65 30.55 445.2 28.95 429.1 27.35 413.5 34.6 400.3 37.75 392.15 46.2 382.75 56.2 372.6 60.6 367.15 64.85 362.9 72.25 356.6 81.7 348.65 84.2 346.35 88.85 343.25 90.9 341.75 94.6 339.1 97.25 336.7 127.15 314.45 158.05 302 179.6 291.4 197.25 287.9 201.2 287.4 218.1 284.5 230.9 282.25 239.1 282 252.35 280.7 271.1 280 281.8 279.65 303.15 279
L 325.6 279.75
Q 339.1 280.2 347.9 282.3 353.7 283.4 361 286.05 362.7 286.7 373.65 291.05 384.15 295.9 391.25 301.05 400.15 307.55 405.2 315.5 406.15 317.1 410.9 323.75 414.5 328.75 415.95 332.4 421.1 341.6 422.8 346 425.95 354 425.4 360.85 426.2 366.45 424.4 375.7 420.2 390.25 408.35 405.85 404.85 410.5 385.95 432.05 371 444.8 363.1 450.8 350 460.75 338.35 466.9 335.6 468.75 330.2 472.75 325.35 476.2 321.6 477.85 318.85 479 314.1 481.35 308.8 483.95 306.6 484.95 302.7 485.7 295.9 488.7 288.75 491.85 285.25 492.65 282 493.35 280.35 493.75 277.5 494.45 275.8 495.75 276.2 498.75 276.85 500.5 289.85 499.6 298.6 495.5 320.4 486.95 321.85 486.35 334.95 480.6 343.55 474 345.2 472.7 351.25 468.8 356.05 465.7 358.55 463.15 361.05 461.75 365.05 458.6 369.45 455.15 371.5 453.9 373.75 452.45 377.3 448.95 381 445.3 383 443.9 386.75 440.9 390.75 436.5 393.25 433.7 397.65 428.3 402.2 424.3 407 417.6 412.4 409.65 415.1 405.75 420.85 396.35 423.5 391.5 428.15 383.1 429.75 376.25 430.2 373.45 430.1 369.2 429.9 364.45 429.9 362.1 428.45 354.8 429.35 346 430.05 339.2 432.45 330.05 435.05 324 436.35 321 438.7 315.5 441.2 312.4 443.05 308.75 447.1 303.95 452.85 297.1 453.7 295.95 458.05 290.75 465.25 285.95 468.35 283.85 478.4 278.15 485.35 273.8 497.1 269.65 514.7 263.4 516.45 262.65 520.7 260.8 528.65 257.6 537.05 254.25 540.85 252.6 553.5 245.15 553.9 244.9 561.1 240.2 565.4 235.25 566.15 234.3 569.15 231.25 571.55 228.85 572.6 227 578.35 216.35 579.9 206.55 581.35 202.65 580.55 197.55 580.05 194.45 578.05 188.75 576.3 184.75 574.6 182.45 572.25 179.25 569.2 177.95 567.75 176.9 564.8 175.3 561.7 173.65 560.35 172.65 549.4 168.6 536.45 169.85 525 170.95 513.05 176.05
M 547.15 192.65
Q 551.5 193.15 554 193.65 544.15 201.3 540.3 203.65 537.5 205.35 531 207 524.65 208.55 520 208.8 512.7 209.25 515.15 205.3 515.85 204.15 519.1 201.5 520.9 200.05 524.3 197.3 526.6 195.45 529.3 194.3 532.3 193 534.8 193 535.55 193 540.65 192.65 544.6 192.35 547.15 192.65 Z"/>
</g>

<g id="fill3_0_Layer0_0_MEMBER_0_FILL">
<path fill="#FFFFFF" stroke="none" d="
M 432 385
Q 429.75 388.1 426.05 395.1 422.35 401.95 420 405.15 410.45 418.25 409.95 418.95 404.05 426.75 398.95 432.05 391.8 442.45 383 448.8 381.2 450.15 376.5 454.3 372.45 457.9 369.8 459.6 365.65 463.55 358.05 468.55 348.1 475.1 345.8 476.85 341.5 479.25 332.95 484.15 325.35 488.45 320 491.15 306.1 496.15 299.1 498.5 286.75 502.65 277.65 503.75 279.4 509.65 280.9 517.9 283.45 522.7 284.2 527.8 286.7 527.4 289.95 526.1 291.8 525.35 295.45 523.75 297.75 522.3 299.35 521.75 301.7 521 303.7 521.65 304 524.25 304.6 529.45 305.05 533.9 304.9 537.2 309.55 536.3 311.05 535.7 312.85 534.8 314.7 536.45 315.75 537.35 317.45 539.55 319.75 540.15 322.35 538.7 322.65 538.55 326.6 535.7 328.45 536.5 329.25 539.8 330.15 543.75 331.05 544.75 332.85 545.5 335.15 544.3 337.65 542.6 338.85 542 360.85 529.05 380.95 509.55 388.7 501.35 396.65 488.9 398.9 485.4 410.05 466.6 411.75 462.8 416.8 452.05 421.05 442.95 423.4 437.45 426 429.2 426.85 426.15 428.65 419.8 429.45 414.65 431.95 408.65 432.25 400 432.1 389.95 432 385 Z"/>
</g>

<g id="fill3_0_Layer0_0_MEMBER_1_FILL">
<path fill="#FFFFFF" stroke="none" d="
M 210.75 528.4
Q 211.1 528 213.4 524.1 215 521.5 216.9 520.7 218.95 521 220.1 523.75 221.5 527.15 222.4 527.9 223.75 526.4 225.5 525.05 230.25 526.05 235.35 527.85 242.75 520.45 248.35 511.6 243.85 512.65 235.75 513.55 226.8 514.6 223.1 515.3 221.8 515.35 205.9 516.45 195.5 517.15 188.65 516.3 181.5 516.35 169.2 514.55 155.35 512.55 149.75 512.25 135.65 510.45 126.6 508.85 113.95 506.6 103.7 503.7 95.95 501.45 85.2 496.1 73.35 489.95 67.3 487.15 58.7 481.95 49.15 475.15 38.5 466.6 29.35 454.45 29.95 455.85 31.05 459.65 32.05 463 33 464.8 44.8 488.55 47.35 493.3 55.9 509.3 64.2 520.4 74.05 534.75 84.5 542 97.45 549.6 103.4 552.65 114.2 558.2 123.4 560.95 125.9 561.6 130.6 563.6 135.3 565.6 137.75 566.25 144.95 568.9 155.3 570.85 161.25 572 173.2 573.95 176.35 573.75 184.9 573.85 192.25 574 196.55 573.4 196.75 562.6 201.1 550.15 204.15 541.45 210.75 528.4 Z"/>
</g>

<g id="fill6_0_Layer0_0_FILL">
<path fill="#FFFFFF" stroke="none" d="
M 200.15 383.6
Q 189.65 387.4 180.3 393.85 174.35 399.55 171.15 403.4 166.45 408.95 163.9 414.4 162.55 419.85 162.2 423.6 161.7 428.75 162.8 432.85 165.7 435.85 170.4 438.45 173.05 439.9 178.95 442.55 194.3 446.7 209.5 445.7 225.6 444.65 239.1 437.9 246.7 433.85 250.25 431.5 256.3 427.55 260 423.1 264 418.45 264.35 418.05 266.6 414.95 267 412.1 269.35 406.6 266.65 400.3 264.25 394.65 259.1 390.75 250.55 384.15 241.65 381.05 231.5 377.45 221.95 378.95 210.95 379.65 200.15 383.6 Z"/>
</g>

<g id="fill7_0_Layer0_0_FILL">
<path fill="#FFFFFF" stroke="none" d="
M 114.45 -0.5
Q 114.285546875 -0.429296875 114.15 -0.3 112.728125 1.9306640625 109.05 8.35 105.940234375 13.8154296875 103.7 16.7 84.9017578125 42.4474609375 83.4 44.45 71.6775390625 60.066796875 62.05 71.25
L 62 71.25
Q 58.8634765625 74.279296875 53.6 72.7 47.3357421875 70.066796875 44.3 69.35 42.7015625 68.5521484375 41.2 69.75 41.17421875 69.7744140625 41.15 69.8 40.5197265625 70.4158203125 39.35 72.15 39.297265625 72.301953125 39.3 72.45 39.297265625 72.5978515625 39.35 72.7 43.8771484375 79.6666015625 54.2 97.4 63.376953125 113.3173828125 69.25 121.95 69.378125 122.123828125 69.55 122.15 69.7275390625 122.22265625 69.9 122.15 76.6890625 119.26171875 90.3 113.75
L 90.35 113.75
Q 102.1140625 108.8232421875 109.9 104.65 111.253515625 109.0541015625 115.1 114.85 121.046484375 123.630078125 121.65 124.8
L 121.65 124.8
Q 123.948046875 130.3958984375 131.4 146.9 131.4572265625 147.037109375 131.55 147.1 131.6884765625 147.2001953125 131.8 147.2 131.9716796875 147.200390625 132.1 147.1 136.7421875 144.466796875 143.6 137.95
L 143.6 137.95
Q 151.1154296875 130.737890625 154.55 128.3
L 154.5 128.3
Q 158.042578125 125.8455078125 166.1 118.85 173.2439453125 112.709375 177.9 109.8
L 177.9 109.8
Q 181.1279296875 107.964453125 186.85 102.95 192.2482421875 98.3189453125 195.45 96.35 196.60078125 96.8369140625 199.1 97.4 200.753125 98.0724609375 200.65 99.65 200.548828125 102.7888671875 201.65 107.05 202.2697265625 109.405078125 203.55 114.1 203.699609375 115.5494140625 203.95 123.15 204.20703125 128.8375 205.15 132.35 205.215234375 132.5216796875 205.3 132.6 205.4322265625 132.7244140625 205.55 132.75 205.716796875 132.766015625 205.85 132.7 225.3263671875 124.383203125 236.3 111.9 239.143359375 112.7322265625 239.8 117.1 240.92734375 123.751171875 241.7 124.85 241.82890625 125.021484375 242 125.05 242.1640625 125.1328125 242.3 125.05 242.4876953125 125.0056640625 242.55 124.85 247.190234375 116.93359375 249.25 112.9 252.9537109375 105.715234375 253.3 99.9 253.30625 99.746875 253.2 99.6 253.0962890625 99.46484375 252.9 99.4 252.758984375 99.37890625 252.6 99.45 242.60703125 103.6677734375 235.6 105.25
L 235.6 105.25
Q 226.25546875 107.3943359375 218.1 106.15 216.9353515625 98.536328125 216.35 95.55 215.039453125 89.3068359375 213.25 84.65 213.221875 84.5361328125 213.1 84.45 212.9765625 84.35859375 212.8 84.35 212.6765625 84.3453125 212.55 84.4 210.5478515625 85.6369140625 207.2 89.25
L 207.2 89.25
Q 204.238671875 92.673828125 202.2 93.8 199.18828125 93.4701171875 195.85 90.65 190.730859375 86.230078125 190 85.75 189.8501953125 85.662109375 189.65 85.7 187.88359375 86.0517578125 180.3 88.75 174.7578125 90.7802734375 171.05 90.45 171.0123046875 90.44765625 170.95 90.45 169.1966796875 90.5083984375 168.3 88.6
L 168.3 88.65
Q 167.621484375 86.9203125 167.75 84.75 168.3546875 80.633984375 168.1 74.55 167.7501953125 67.8404296875 167.7 64.45 167.7025390625 64.2689453125 167.6 64.1 167.49140625 64.0025390625 167.3 63.95 167.158203125 63.93203125 167 64 162.7576171875 65.9392578125 151.5 70.45
L 151.5 70.5
Q 142.07265625 74.370703125 136.6 76.95 131.815625 64.556640625 126 38.65 120.0875 12.3484375 115.05 -0.2 114.9994140625 -0.3580078125 114.8 -0.45 114.6568359375 -0.5298828125 114.45 -0.5 Z"/>
</g>

<g id="fill7_0_Layer0_1_FILL">
<path fill="#FFFFFF" stroke="none" d="
M 497.8 77.5
Q 497.5916015625 76.936328125 497.55 74 497.55234375 71.3353515625 495.6 70.55 495.4134765625 70.46640625 495.2 70.5 495.0416015625 70.597265625 494.95 70.75 490.2998046875 79.5251953125 480.95 96.9 472.998828125 112.0888671875 467.65 123.55
L 467.65 123.5
Q 466.59765625 125.7158203125 464.3 129.95
L 464.3 130
Q 462.5033203125 133.997265625 462.3 137.1 462.28828125 137.2283203125 462.3 137.3 462.3671875 137.43828125 462.45 137.5
L 464.75 139.7
Q 465.46640625 147.2671875 461 151.2
L 461 151.2
Q 459.4265625 152.40859375 460.2 156.45 460.612890625 158.6884765625 459.6 159.55
L 459.4 156.65
Q 459.3841796875 156.4859375 459.25 156.35 459.1271484375 156.216015625 458.95 156.2 456.780078125 155.9927734375 454.5 158.55 453.5123046875 159.7509765625 452.65 160.4 453.549609375 158.9990234375 455.3 156.25 457.518359375 152.8845703125 458.15 150.15 463.5982421875 146.2669921875 462.65 140.65 462.6220703125 140.4998046875 462.5 140.35 462.3720703125 140.2640625 462.2 140.25
L 457.7 139.75
Q 457.53984375 139.7373046875 457.4 139.8 456.183203125 140.52109375 454.6 141.7 451.76796875 140.051953125 447.75 140.75 445.2310546875 141.14140625 441.1 142.8 439.653515625 142.1322265625 438.95 141.65 438.137109375 141.0673828125 438.55 140.25 441.0083984375 139.160546875 447.15 138.35 452.923046875 137.6015625 455.8 135.7 459.3771484375 136.0130859375 461.3 132.5
L 461.25 132.5
Q 463.076171875 129.2685546875 462.15 125.8 462.1330078125 125.633203125 461.95 125.5 461.8001953125 125.4166015625 461.6 125.45 460.266015625 125.6990234375 459.5 125.8 458.4208984375 125.922265625 457.75 125.6
L 457.75 125.6
Q 453.0109375 123.398828125 446.2 119.9 438.6734375 115.89921875 434.8 113.95 434.69453125 113.8806640625 434.55 113.9 434.3947265625 113.9216796875 434.25 114 434.16171875 114.1267578125 434.1 114.25 433.4712890625 116.706640625 431.75 121.25 429.97265625 126.0419921875 429.25 128.25
L 429.25 128.25
Q 428.7669921875 130.3521484375 427.2 131.6 425.5490234375 132.8634765625 423.7 132.45 422.20703125 131.34609375 419.5 128.8
L 419.5 128.85
Q 416.754296875 126.06015625 415.1 124.95 415 124.8556640625 414.85 124.85 414.69921875 124.855859375 414.55 124.95 414.438671875 125.0345703125 414.35 125.15 413.21171875 128.193359375 411.85 135.6 410.6685546875 142.0060546875 409.15 145.35 405.330078125 145.409375 399.6 143.4 391.9376953125 140.5771484375 389.75 140.15 383.971484375 137.262890625 373.45 133.8 361.4322265625 129.7392578125 357 127.9 356.8267578125 127.8220703125 356.65 127.85 356.471875 127.937109375 356.35 128.1 356.2734375 128.2634765625 356.3 128.45 357.7486328125 136.565625 358.45 146.95 358.8 152.4783203125 359.2 165.6 359.1962890625 168.7947265625 359.05 169.7 358.737109375 171.9193359375 357.45 173 355.3857421875 174.346875 350.55 173.35 345.3955078125 172.2984375 342.85 174 342.783203125 174.096484375 342.7 174.2 342.665234375 174.29296875 342.65 174.4 340.5091796875 192.23515625 337.3 201.9 337.26953125 202.0625 337.3 202.2 338.33203125 205.189453125 342.35 205.95 344.5189453125 206.35 348.7 206.8 348.8947265625 206.820703125 349.05 206.7 349.2125 206.575390625 349.25 206.35 350.37734375 199.49765625 353.15 195.5 370.5435546875 203.3427734375 389.6 218.95 389.7787109375 219.107421875 389.95 219.1 390.180859375 219.091015625 390.3 218.95 394.5390625 214.3826171875 397.35 205.5 400.9880859375 194.1974609375 402.05 191.7 406.672265625 191.692578125 411.7 194.1
L 411.75 194.1
Q 415.605859375 195.7859375 420.8 199.5 420.8369140625 199.5265625 420.85 199.55 424.8794921875 201.646875 438 207.5 448.65390625 212.3359375 454.6 216.05 454.8001953125 216.1880859375 455 216.15 455.205078125 216.100390625 455.3 215.9 458.4017578125 211.28828125 461.3 203.5 464.3556640625 194.8314453125 466.05 190.55 466.06484375 190.5505859375 466.05 190.5 469.228125 183.8330078125 473.3 166.4 476.8931640625 151.15078125 481.5 143.5 487.016015625 144.304296875 496.05 147.7 506.6765625 151.7458984375 511.2 152.7 511.3544921875 152.721875 511.5 152.65 511.642578125 152.5986328125 511.7 152.45 511.8083984375 152.3359375 511.8 152.15 510.4421875 123.424609375 503.5 95 503.5099609375 94.9580078125 503.45 94.9 501.65625 91.84296875 500.3 86.5 498.421875 79.0810546875 497.8 77.5
L 497.8 77.5 Z"/>
</g>

<g id="fill8_0_Layer0_0_FILL">
<path fill="#FFFFFF" stroke="none" d="
M 656.45 174.3
Q 662.6306640625 160.648828125 663.6 148.3 669.7580078125 117.5294921875 644.5 78.6
L 644.5 78.6
Q 632.69921875 62.1990234375 626.65 54.05 615.7666015625 39.238671875 604.6 33.35 589.9791015625 23.0361328125 563.9 14.3
L 563.95 14.3
Q 542.041015625 5.3578125 516.3 3.9 491.190625 0.09765625 460.45 -0.4 438.1404296875 -0.85078125 404.3 0.5 391.09609375 -0.100390625 370.95 2.75 341.5955078125 6.7986328125 337.95 7.15
L 337.9 7.15
Q 333.0291015625 7.7990234375 317.7 10.35 305.1908203125 12.498828125 297.55 13.35 292.22109375 13.9587890625 282 16.3 271.673046875 18.8078125 266.55 19.35
L 266.5 19.35
Q 255.5556640625 21.4044921875 241.6 27.1
L 241.6 27.15
Q 225.6009765625 34.0994140625 217.65 37.45 217.6251953125 37.461328125 217.6 37.45 210.10625 41.615234375 180.65 56.2 157.7921875 67.5140625 144.5 76.3
L 144.5 76.35
Q 143.301953125 77.1935546875 131.1 84.75
L 131.15 84.75
Q 122.959765625 89.799609375 118.3 94.2
L 118.3 94.25
Q 105.1966796875 105.13515625 78.55 126.5
L 78.55 126.5
Q 55.79140625 145.5513671875 42 162.3 28.54765625 174.51015625 17.2 194.15 17.21171875 194.175390625 17.2 194.2 9.96328125 210.1705078125 8 228.05 6.1390625 245.625 9.5 263.2 9.5201171875 263.25078125 9.55 263.3 15.2681640625 277.207421875 23.7 288.05 26.1365234375 293.33984375 31.85 298.1 35.1923828125 300.93359375 42.35 305.9 42.488671875 305.98515625 42.6 306 42.7572265625 306.011328125 42.85 305.95 43.0001953125 305.876953125 43.05 305.75 45.0724609375 302.5046875 59.35 277.7 69.1693359375 260.747265625 77.25 250.9
L 77.3 250.85
Q 81.348046875 247.5013671875 87.7 238.75 93.9564453125 230.3705078125 98.2 226.9 98.2384765625 226.875 98.25 226.85 120.695703125 204.1169921875 128.35 197.05 145.8107421875 180.8572265625 161.35 170.95 161.4005859375 170.9521484375 161.4 170.9 172.453515625 161.35 187.25 151.4 197.4650390625 144.7236328125 214.85 134.4
L 214.8 134.45
Q 218.7283203125 132.5931640625 235.4 123.2 247.842578125 116.2091796875 256.4 113.3 256.4380859375 113.314453125 256.45 113.3 270.08359375 106.3650390625 289.8 100.75 289.86171875 100.7642578125 289.9 100.75 296.4166015625 97.9783203125 308.45 95.8 322.190625 93.287109375 327.45 91.5
L 327.4 91.5
Q 330.79375 90.592578125 337.6 90.25 344.6423828125 89.8412109375 347.95 88.95
L 347.9 89
Q 396.2162109375 82.20859375 451.25 88.55
L 451.3 88.55
Q 462.4353515625 88.551953125 477.5 93.1
L 477.5 93.1
Q 524.2072265625 105.17421875 548.5 113.05 562.7001953125 119.35625 570.8 123.25 582.929296875 129.0728515625 592.4 134.75 596.90859375 138.0603515625 606.35 144.25 614.2369140625 149.999609375 618.3 155.75
L 618.3 155.8
Q 628.23046875 168.194140625 632.75 175.45 639.96875 186.9353515625 642.3 197.7 642.347265625 197.9080078125 642.5 198 642.6990234375 198.141015625 642.9 198.1 643.107421875 198.0525390625 643.2 197.85 652.19453125 183.831640625 656.45 174.3 Z"/>
</g>

<g id="outline_0_Layer0_0_MEMBER_0_MEMBER_0_MEMBER_0_MEMBER_0_FILL">
<path fill="#0F0F0F" stroke="none" d="
M 200.8 379.75
Q 189.55 383.35 181.4 389.45 177.25 391.8 172.85 396.6 170.35 399.35 165.65 405.1 158.2 414.55 159 423.7 159.45 429.9 159.75 431.45 160.55 435.75 163 438.25 164.8 439.6 167.8 441.2 172.3 443.55 172.8 443.85 176.35 445.1 183.55 447.65 189.85 449.55 194.75 449.35 212.65 450.9 229.3 446.3 246.95 441.4 259.95 430.45 265.05 425.8 268.15 420.45 271.65 414.45 272.2 408.35 272.5 398.35 261.7 389.4 254.1 381.9 243.4 378.2 232.95 374.6 222.1 375.4 209.95 376.85 200.8 379.75
M 180.3 393.85
Q 189.65 387.4 200.15 383.6 210.95 379.65 221.95 378.95 231.5 377.45 241.65 381.05 250.55 384.15 259.1 390.75 264.25 394.65 266.65 400.3 269.35 406.6 267 412.1 266.6 414.95 264.35 418.05 264 418.45 260 423.1 256.3 427.55 250.25 431.5 246.7 433.85 239.1 437.9 225.6 444.65 209.5 445.7 194.3 446.7 178.95 442.55 173.05 439.9 170.4 438.45 165.7 435.85 162.8 432.85 161.7 428.75 162.2 423.6 162.55 419.85 163.9 414.4 166.45 408.95 171.15 403.4 174.35 399.55 180.3 393.85 Z"/>
</g>

<g id="outline_0_Layer0_0_MEMBER_0_MEMBER_1_MEMBER_0_MEMBER_0_FILL">
<path fill="#0F0F0F" stroke="none" d="
M 182.15 373.05
Q 173.2 377.2 168.65 379.05 156.85 384.75 146.75 394.8 136.05 406.65 119.85 414.1 113.8 418.05 110.25 423 108.8 425.05 105.8 429.2 103.45 432.9 103.2 436.25 100.3 443.05 103.6 453.2 103.85 453.6 111.05 467.9 115.5 476.8 120.95 480.85 123.55 482.45 128.7 485.75 133.3 488.5 137.05 489.4 154.55 494.7 170.75 494.55 175.05 494 183.9 492.95 191.45 491.65 196.2 488.6 198.4 487.75 202.9 486.2 206.8 484.75 209.3 483.2 215.1 481.15 223.1 479.9 224.55 479.65 237.2 478.1 240.45 477.1 246.35 476.5 253 475.8 255.55 475.25 281.65 468.8 303 459.95 320.05 451 332.2 429.4 334.15 426.85 335.15 422.15 336.55 415.35 336.85 414.45 338.05 408.9 336.1 403.7 334 397.95 329.05 395.95 326.15 394.9 321.75 392.55 316.25 389.6 314.6 388.85 312.7 388 312.6 385.45 312.9 382.45 313 381.2 314.1 372.7 314.1 372.65 314.25 367.65 311.7 364.65 303.7 356.4 291.8 351.95 279.45 349.2 267.1 350.25 256.25 351.8 253.15 352.3 245.3 353.7 239.5 355.7 237.5 356.65 233.3 357.8 229.05 358.95 227.05 359.9 223.55 360.8 211.9 365.15 202.55 368.65 196.4 369.25 190.15 369.7 182.15 373.05
M 180.8 377.8
Q 187.7 374.4 201.5 371.5 216.2 368.45 222.4 365.75 224 365.1 227.55 364.15 230.95 363.25 232.7 362.5 252.25 353.75 272.6 353.25 281.4 352.5 286.55 354.75 292.7 356.5 296 357.95 301.05 360.2 304.25 363.5 308.25 366.05 309.55 371.05 310.8 375.85 309.1 380.4 307.85 383.85 309 387.35 310.25 391.05 313.55 392.4 315.85 393.95 321.3 396.6 326.5 399.1 329 400.9 331.6 404 332.15 408.9 332.5 412.35 331.85 417.65 331.8 419.9 330.85 422.6 330.3 424.05 328.8 427.25 323.05 435.7 318.8 440.8 312.9 447.95 306.8 452.65 296.05 459 281 463.7 272.95 466.2 253.8 470.8 240.6 472.1 237 472.55 227.55 473.8 220.45 475.8 213.6 476.85 200.55 482.7 187.8 488.35 180.6 489.25 172.6 489.8 168.55 489.9 161.5 490.15 156.6 488.9 147.55 488.35 136.75 484.85 130.45 481.9 127.4 480.3 121.95 477.4 119.95 473.35 113.45 465 111.1 456.95 108.1 451.3 106.7 448.4 104.25 443.2 105.65 439.2 106.85 435.3 109.7 430.95 111.1 428.7 115.1 423.5 119.15 419.25 128.15 413.7 137.85 407.7 141.5 404.35 160.15 385.85 180.8 377.8 Z"/>
</g>

<g id="outline_0_Layer0_0_MEMBER_0_MEMBER_2_MEMBER_0_MEMBER_0_FILL">
<path fill="#0F0F0F" stroke="none" d="
M 558.75 185.55
Q 558.4 183.75 556.8 183.1 555.6 183.65 555.45 185.1 555.4 185.95 555.4 187.7 555.2 188.75 554.2 189.9 553.05 191.15 552.5 191.75 538.65 190.2 529.55 191.4 527.15 192 523.9 194.5 520.1 197.45 518.55 198.2 516.7 199.1 514.35 202.75 512.2 206.2 510 206.9 505.7 206.65 503.55 206.7 504.5 208.65 507.45 209.4 509.1 209.8 512.45 210.25 519.95 211.65 528.75 209.4 535.25 207.75 544.15 203.5 550.05 199.65 552.6 197.35 557 193.3 558.3 188.75 559.1 187.2 558.75 185.55
M 538.95 195.35
Q 540.15 195.45 543.15 195.25 545.8 195.05 547.3 195.3 541.65 200.45 534.15 203.05 526.8 205.65 519.05 205.25 523 200.65 527.9 198 533.4 195.05 538.95 195.35 Z"/>
</g>

<g id="outline_0_Layer0_0_MEMBER_0_MEMBER_3_MEMBER_0_MEMBER_0_FILL">
<path fill="#0F0F0F" stroke="none" d="
M 532.6 167
L 531.1 165.85
Q 518.25 168.1 504.6 174.2 493.3 179.3 480.25 187.65 479.3 188.55 473.95 193.05 470.1 196.35 467.9 198.7 465.45 201.05 460.35 205.05 455.15 209.15 452.8 211.35 449.7 214.05 444.2 217.85 437.3 222.6 435.4 224.05 416.75 236.2 406 242.45 389.4 252.05 374.95 257.85 363.55 264.05 349.35 266.05 347 265.95 342.9 267.05 338.45 268.25 336.4 268.3 336.2 268.3 324.4 269.6 317.15 270.4 312.35 269.7 307.5 269.95 293.9 269.45 282.25 269 275.4 269.85 269.85 269.5 260.35 269.55 249.35 269.6 245.25 269.45 231.75 270.5 225 271.05 212.95 272.05 205 274.45 199.65 275.2 190.95 277.8 180.65 280.85 177 281.6 174 282.25 168.2 284.5 162.5 286.75 159.4 287.4 158.95 287.6 148.9 291.55 142.6 294 138.75 296.3 131.85 299.3 122.75 305 117.6 308.2 107.35 314.8 104.15 317.5 92.3 325.25 82.8 331.45 78.2 336.7 74.25 339.75 72.55 341.2 69.45 343.85 67.35 346.25 55.5 355.9 44.9 368.65 43.35 371.4 39.55 375.6 35.4 380.15 33.95 382.35 31.45 385.95 26.25 393.1 22.05 399.45 20.8 405 15.4 421.65 18.9 433.35 22.35 447.4 25.9 457.6 30.45 470.5 36.2 480.6 46.6 503 57.75 519.45 59.35 521.45 62.65 525.35 65.5 528.85 67.25 531.5 69.4 534.15 73.4 537.7 79.05 542.65 79.9 543.5 82.8 546.05 87.55 548.95 90.25 550.55 95.6 553.7 97.45 554.55 101.1 557.15 104.55 559.55 106.7 560.4 109.8 562 116.25 563.85 122.8 565.7 125.75 567.2 136.1 571.7 150.6 574.15 154.25 574.8 176.25 577.5 179.7 577.25 186.25 577.7 193.05 578.15 196.3 578 196.15 587.75 198.1 599 198.7 601.35 200.1 609.65 201.2 616.25 202.7 620.15 204.65 623.55 208.15 630.55 211.5 636.6 215.05 639.95 218.5 642.05 219.8 644.5 230.9 654.55 246.9 657.95 256 660.5 264.45 659.95 273.95 659.4 281.2 654.9 286.6 653.4 292.65 649.55 294.75 648.2 303 642.2 309 637 315.95 628.6 323.75 618.75 327.7 613.9 331.05 610 334.3 603.35 337.75 595.7 339.65 592 342.55 587 346.6 576.7 349.4 570.9 351.45 562.65 351.65 561.95 354.65 548.05 355.05 546.95 354.6 545.8 354.1 544.65 353.05 544.2 348.65 544.5 339.5 546.75 359.75 534.55 378.7 515.9 381.55 513.9 385.45 509.4 389.95 504.25 391.85 502.6 396.05 497.35 401.8 488.1 408.95 476.6 411.25 473.3 413 471.1 414.5 467.8 415 466.7 416.9 461.85 420.95 454.6 422.6 451.05 425.5 444.85 426.65 439.55 427.2 437.15 429.75 430.45 431.9 424.8 432.25 421.2 433.45 417.8 434.7 412.35 436.55 404.4 436.8 403.4 437.25 399.05 436.8 391.75 436.25 383.1 436.35 380.05 436.35 375.85 434.15 359.3 432.45 346.5 434.05 338.5 437.5 327 443.85 316.1 450 305.55 458.4 296.35 467.95 288.55 478.8 282.85 483.1 279.8 492.45 276.15 502 272.35 506.1 269.55 513.35 267.4 522.1 263.95 527.65 261.75 537.75 257.35 540.3 257.55 543.3 255.8 545 254.8 548.35 252.7 558.35 247.25 564.55 242.3 572.85 235.75 577.35 228.1 577.65 227.25 580.65 220.1 582.65 215.25 583.15 211.8 585.5 206.55 585.35 199.8 585.2 194.65 583.5 187.65 578.75 177.55 568.75 171.6 548.25 162.3 531.85 165.65
L 532.6 167
M 496.3 183.5
Q 501.9 180.7 513.05 176.05 525 170.95 536.45 169.85 549.4 168.6 560.35 172.65 561.7 173.65 564.8 175.3 567.75 176.9 569.2 177.95 572.25 179.25 574.6 182.45 576.3 184.75 578.05 188.75 580.05 194.45 580.55 197.55 581.35 202.65 579.9 206.55 578.35 216.35 572.6 227 571.55 228.85 569.15 231.25 566.15 234.3 565.4 235.25 561.1 240.2 553.9 244.9 553.5 245.15 540.85 252.6 537.05 254.25 528.65 257.6 520.7 260.8 516.45 262.65 514.7 263.4 497.1 269.65 485.35 273.8 478.4 278.15 468.35 283.85 465.25 285.95 458.05 290.75 453.7 295.95 452.85 297.1 447.1 303.95 443.05 308.75 441.2 312.4 438.7 315.5 436.35 321 435.05 324 432.45 330.05 430.05 339.2 429.35 346 428.45 354.8 429.9 362.1 429.9 364.45 430.1 369.2 430.2 373.45 429.75 376.25 428.15 383.1 423.5 391.5 420.85 396.35 415.1 405.75 412.4 409.65 407 417.6 402.2 424.3 397.65 428.3 393.25 433.7 390.75 436.5 386.75 440.9 383 443.9 381 445.3 377.3 448.95 373.75 452.45 371.5 453.9 369.45 455.15 365.05 458.6 361.05 461.75 358.55 463.15 356.05 465.7 351.25 468.8 345.2 472.7 343.55 474 334.95 480.6 321.85 486.35 320.4 486.95 298.6 495.5 289.85 499.6 276.85 500.5 276.2 498.75 275.8 495.75 277.5 494.45 280.35 493.75 282 493.35 285.25 492.65 288.75 491.85 295.9 488.7 302.7 485.7 306.6 484.95 308.8 483.95 314.1 481.35 318.85 479 321.6 477.85 325.35 476.2 330.2 472.75 335.6 468.75 338.35 466.9 350 460.75 363.1 450.8 371 444.8 385.95 432.05 404.85 410.5 408.35 405.85 420.2 390.25 424.4 375.7 426.2 366.45 425.4 360.85 425.95 354 422.8 346 421.1 341.6 415.95 332.4 414.5 328.75 410.9 323.75 406.15 317.1 405.2 315.5 400.15 307.55 391.25 301.05 384.15 295.9 373.65 291.05 362.7 286.7 361 286.05 353.7 283.4 347.9 282.3 339.1 280.2 325.6 279.75
L 303.15 279
Q 281.8 279.65 271.1 280 252.35 280.7 239.1 282 230.9 282.25 218.1 284.5 201.2 287.4 197.25 287.9 179.6 291.4 158.05 302 127.15 314.45 97.25 336.7 94.6 339.1 90.9 341.75 88.85 343.25 84.2 346.35 81.7 348.65 72.25 356.6 64.85 362.9 60.6 367.15 56.2 372.6 46.2 382.75 37.75 392.15 34.6 400.3 27.35 413.5 28.95 429.1 30.55 445.2 40.9 455.65 44.7 460.2 50.4 464.25 54.8 467.4 61.35 470.95 65.95 474 73.5 477.7 84.55 483.15 85.95 483.9 90.75 486.4 97.15 488.95 100.45 490.25 108.65 493.25 120.5 498.05 132.6 499.6 136.05 499.55 141.25 500.6 148.55 502.05 149.85 502.2 165.85 503.25 188.55 505.45 199.85 507.05 212 505.95 216.45 506.35 223.1 505.5 233.95 504.1 234.2 504.1 238.15 503.2 246.05 501.65 253.15 500.15 257.8 498.65 255.1 503.25 253.7 505.45 251.55 506.85 246.9 507.65 241.95 508.45 239.95 509.55 219.15 512.4 214.5 512.9 203.2 513.15 197.55 513.15 187.7 513.2 180.6 512.4 172.15 512.15 170.4 512 164.6 511.6 160.35 510.25 136.2 508.5 112.85 503.2 112.75 503.15 103.35 500.7 97.65 499.2 94.3 497.05 86.3 493.9 77.1 487.8 63.1 480.2 61.6 479.3 52.95 474.15 47.45 468.8 38.35 458.95 34.05 453.8 26.55 444.8 24.1 436.65 23 428.15 22.65 423.9 22 416.45 23.25 411.15 24.55 406.4 25.2 404 26.35 399.75 27.75 397.1 30.5 392.35 35.25 386.85 40.95 380.55 43.75 377.4 45 375.35 48.2 372.05 51.55 368.6 52.75 366.75 60.05 359.3 63.8 355.6 70.3 349.3 75.7 345.3 98.7 324.2 128.65 308.35 144.95 298.1 171.45 289.1 190.65 281.5 215.7 277.85 220.15 276.5 226.65 275.85 230.4 275.45 237.85 274.9 240.1 274.65 244.95 275.2 249.55 275.7 252.05 275.3 266.4 274.9 289.95 274.85 319 274.75 327.8 274.65 331.75 274.8 337.7 273.25 345.45 271.2 347.4 270.9 355.75 269.25 367.8 264.95 387.15 258.15 387.9 257.9 393.6 255.55 401.15 251.05 405.45 248.5 413.95 243.3 425.8 236.5 439.65 226.5 447.75 222.25 456.35 215.1 462.1 210.3 471.2 201.4 473.1 200.35 475.9 197.15 478.7 193.95 480.55 192.85 487.15 188 496.3 183.5
M 333.3 285.55
Q 348.4 286.4 361.25 291.65 376.6 296.8 385.2 302.85 391.7 306.3 398.05 314.95 401.6 319.75 408.55 329.4 423.35 352.2 419.75 370.2 419.2 377.45 415.55 385.45 413.05 391.05 407.8 399.3 406.4 392.9 402.15 386.1 399.45 381.8 393.6 374.5 391.2 371.05 386.5 367.65 380.95 364 378.3 362.05 372.7 358.7 365.55 355.25 360.75 352.95 352.35 349.25 338.05 344.6 310.55 337.5 301.65 334.8 295.05 334.8 262.6 331.05 234.15 335.05 232.2 335.55 228.1 335.8 224.05 336 222.05 336.55 218.95 337.6 210.9 339.05 203.75 340.35 199.9 342 188.25 345.3 180.2 349.4 175.15 351.1 167.8 355.25 158 360.75 155.7 361.85 145.45 367.9 139.45 371.85 130.7 377.7 124.2 383.35 115 389.2 104.7 398.75 100.2 402.9 87 416.3 84.45 418.35 80.75 423.35 77 428.5 74.65 430.45 69.85 436.25 64.05 446.3 55.65 460.9 54.45 462.8 50.25 459.9 48.3 458.25 44.95 455.45 43.55 452.35 38.6 446 35.25 437.85 33.25 427.55 34.35 417.25 35.5 406.75 39.75 397.4 46.4 385.85 54.3 378.7 62.4 368.85 75.8 357.65 91.5 345.05 99.2 338.65 101.9 336.05 106.7 333.1 113.9 328.65 114.6 328.15 122.4 322.95 135.85 316.3 153.2 307.7 157.6 305.25 162.3 303.3 171.7 299.2 179.9 295.85 186.3 294.65 189.35 294.3 195.45 292.85 201.45 291.45 204.55 291.1 209.05 290.6 216.45 289.35 225.45 287.85 228.35 287.45 230.5 287.25 247.8 284.85 259.65 283.2 267.4 283.55 287.3 282.75 300.45 283 318.5 283.3 333.3 285.55
M 337.7 348
Q 345.6 350.3 351 352.45 351.25 352.6 365.9 358.65 374.9 362.4 379.75 366.8 384.65 369.15 388.4 374.1 390.1 377.25 394.3 382.95 398.5 388.75 400.2 391.8 401 394.2 402.75 399.1 403.95 403.4 403.05 406.65 399.6 410.75 392.75 419.1 386.65 426.3 381.55 430.7 379.15 432.55 375.1 436.25 370.75 440.3 368.7 441.9 364.55 445.1 356.6 450.1 347.95 455.55 344.35 458.15 326.85 470.3 325.4 471.2 314.25 478.25 304.75 481.4 294.65 485.2 289.55 486.95 280.75 489.95 273.95 491.3 273.25 488 272.5 486.5 271.2 483.8 268.65 484.55 266.45 485.65 264.4 488.95 261.8 493.15 260.85 494.1 258 495 253.7 495.95 248.9 497.05 246.5 497.6 229.8 500.05 221.45 501.25 206.4 503.4 196.2 501.7 170.05 500.15 160.2 499.3 140 497.5 124.5 494.3 121.5 493.95 117.5 492.2 113.1 490.05 110.8 489.15 106.2 488 103.9 487.35 99.9 486.25 97.3 484.85 95 484.45 91.3 482.25 87.35 479.95 85.35 479.45 72.05 473.9 59.4 466.1 65.7 448.55 79.35 431.25 89.85 417.9 107.1 402 121.2 388.45 144.95 372.05 151.95 367.3 155.55 365.05 161.7 361.2 166.85 359.5 192.55 345 226.75 338.7 242.95 336.05 265.5 336.65 268.85 337.55 275.05 337.3 281.8 337.05 284.65 337.55 292.9 337.8 304.5 340.1 311.1 341.4 324.15 344.15 328.65 345.5 337.7 348
M 426.05 395.1
Q 429.75 388.1 432 385 432.1 389.95 432.25 400 431.95 408.65 429.45 414.65 428.65 419.8 426.85 426.15 426 429.2 423.4 437.45 421.05 442.95 416.8 452.05 411.75 462.8 410.05 466.6 398.9 485.4 396.65 488.9 388.7 501.35 380.95 509.55 360.85 529.05 338.85 542 337.65 542.6 335.15 544.3 332.85 545.5 331.05 544.75 330.15 543.75 329.25 539.8 328.45 536.5 326.6 535.7 322.65 538.55 322.35 538.7 319.75 540.15 317.45 539.55 315.75 537.35 314.7 536.45 312.85 534.8 311.05 535.7 309.55 536.3 304.9 537.2 305.05 533.9 304.6 529.45 304 524.25 303.7 521.65 301.7 521 299.35 521.75 297.75 522.3 295.45 523.75 291.8 525.35 289.95 526.1 286.7 527.4 284.2 527.8 283.45 522.7 280.9 517.9 279.4 509.65 277.65 503.75 286.75 502.65 299.1 498.5 306.1 496.15 320 491.15 325.35 488.45 332.95 484.15 341.5 479.25 345.8 476.85 348.1 475.1 358.05 468.55 365.65 463.55 369.8 459.6 372.45 457.9 376.5 454.3 381.2 450.15 383 448.8 391.8 442.45 398.95 432.05 404.05 426.75 409.95 418.95 410.45 418.25 420 405.15 422.35 401.95 426.05 395.1
M 265.65 494.45
Q 267.8 490.7 268.65 489.4 271.6 496.75 275.05 512.2 278.55 527.8 281.45 535.1 284.7 533.55 290.5 531.15 297.1 528.5 299.6 527.35 299.65 529.35 299.85 533.3 300 536.85 299.65 539.25 299.55 540.6 300 541.7 300.6 543 301.85 542.95 304.1 543.15 307.45 541.95 311.85 540.35 312.9 540.15 313.3 540.4 316.3 543 318.4 544.75 320.3 544.95 321.55 544.25 323.4 542.15 325.3 540.05 326.45 539.35 327.5 542.05 328.25 545.7 328.6 547.5 329.3 552.15 334.25 552.95 339.95 551.65 344.1 550.7 350 548.2 349.8 551.55 347.65 555.75 346.45 558.1 343.75 562.75 343.3 562.1 342.65 558.3 342.2 555.35 340.2 554.95 333.75 562.35 322.25 567.25 321.7 565.2 321.55 561.9 321.4 557.4 321.3 556.55 320.55 553.75 320.2 552.35 319.55 549.9 319.6 548.1 319.7 546.9 318.45 546.45 316.85 546.1 316.2 545.8 314.3 546.95 311 549.8 307.65 552.7 305.75 553.8 303 555.5 298.8 559.15 294.05 563.25 292 564.7 289.95 566.15 285.5 570.4 281.5 574.2 278.8 575.75 274.4 566.05 273.05 562.75 272.7 562.05 269.2 556.85 266.8 553.25 266.05 550.55 261.4 553.1 254.25 556.1 246.2 559.35 242.2 561.05 238.75 555.95 233.35 546.6 227.25 536.15 224.6 532.05 225.25 531.05 225.6 530.7 226.35 530.1 227.15 530.5 228.9 530.9 232.65 532.5 235.95 533.45 237.9 531.55 243.6 524.95 250.5 515.75 251.4 514.55 262.45 499.4 263.8 497.7 265.65 494.45
M 223.1 515.3
Q 226.8 514.6 235.75 513.55 243.85 512.65 248.35 511.6 242.75 520.45 235.35 527.85 230.25 526.05 225.5 525.05 223.75 526.4 222.4 527.9 221.5 527.15 220.1 523.75 218.95 521 216.9 520.7 215 521.5 213.4 524.1 211.1 528 210.75 528.4 204.15 541.45 201.1 550.15 196.75 562.6 196.55 573.4 192.25 574 184.9 573.85 176.35 573.75 173.2 573.95 161.25 572 155.3 570.85 144.95 568.9 137.75 566.25 135.3 565.6 130.6 563.6 125.9 561.6 123.4 560.95 114.2 558.2 103.4 552.65 97.45 549.6 84.5 542 74.05 534.75 64.2 520.4 55.9 509.3 47.35 493.3 44.8 488.55 33 464.8 32.05 463 31.05 459.65 29.95 455.85 29.35 454.45 38.5 466.6 49.15 475.15 58.7 481.95 67.3 487.15 73.35 489.95 85.2 496.1 95.95 501.45 103.7 503.7 113.95 506.6 126.6 508.85 135.65 510.45 149.75 512.25 155.35 512.55 169.2 514.55 181.5 516.35 188.65 516.3 195.5 517.15 205.9 516.45 221.8 515.35 223.1 515.3
M 215.9 525.4
Q 219.2 529.6 223.65 538.75 228.25 548.3 231.2 552.3 232.05 554.5 234.05 558.05 236.3 562.05 237.05 563.7 239.2 567.85 241.8 566.9 249.35 563.5 264.05 555.6 265 558.1 268.7 564.6 270.4 568.3 273.15 576 275.85 582.7 279.4 586.35
L 277.15 588.8
Q 277.45 589.45 278.2 590.05 278.65 590.45 279.55 591.1
L 278.1 593.05 279.25 595.5
Q 278.7 596.15 277.35 597.25 276.25 598.25 276.05 599.4
L 271.85 600.35
Q 269.3 600.9 269 602.6 270.3 602.1 272.2 601.55 273.3 601.25 275.45 600.7 276.05 600.8 277.35 601.45 278.45 601.85 279.1 601.1 279.8 600.7 280.1 599.25 280.35 597.8 281.1 597.45 282.25 597.6 284.4 598.65 286.5 599.7 287.65 599.8 287.8 598.6 286.5 597.8 285.3 597.1 284.05 597.25 282.6 597.4 281.65 595.95 280.7 594.05 280.3 593.25
L 281.35 592.2
Q 281.7 590.25 280.5 589.2 281.9 587.5 283.6 586.3 282.5 585.45 281.75 583.75 281 581.75 280.6 580.75 283.6 578.7 288.6 573.75 293.7 568.75 296.55 566.75 299.9 563.65 305.95 559 313.15 553.35 315.5 551.4 317.4 552.05 317.5 554.5 317.55 555.85 317.5 558.6 317.35 560.75 318.4 564.7 319.5 568.75 319.45 570.8 323.65 569.8 329.25 566.25 337.7 560.95 338.55 560.5 338.8 561.7 338.7 565.95 338.6 569.35 339.5 571.15 341.55 570.8 343.1 569.25 344.75 567.55 344.6 565.5 349 557.75 349.75 556.15 348.85 559.8 346.5 565.25 343.45 572.35 342.8 574.2 339.15 582.3 332.05 598.75 325.4 612.7 317.55 621.05 314.9 623.1 310.25 628.2 305.7 633.2 302.85 635.3 300.05 637.55 294.45 642.1 289.5 646 285.55 648.15 274.6 652.75 260.65 654.65 255.1 654.9 247.6 652.3 239.25 649 235 647.7 225.7 643.7 218.4 635.6 211.55 628 207.35 618.05 205.25 610.3 204.2 606.4 202.4 599.5 201.95 594.6 200.4 576.3 202 562.15 206.7 539.9 215.9 525.4 Z"/>
</g>

<g id="outline_0_Layer0_0_MEMBER_0_MEMBER_4_MEMBER_0_MEMBER_0_FILL">
<path fill="#0F0F0F" stroke="none" d="
M 489.5 527.65
Q 488.7 528.95 487.5 531.7 484.1 537.15 480.2 546.25 474.6 559.2 473.65 561.2 472.1 560.6 464.45 556.65 458.85 553.75 454.85 553.15 450.8 562 450.15 563.35 448.8 562.6 446.75 560.45 444.7 558.25 443.45 557.5 441.15 562.65 439.1 571.55 429.65 568.85 423.2 566.5 414.6 563.4 407.9 559.8 406.95 561.4 407 562.25 407.4 566.65 407.65 575.1 407.9 583.75 408.25 587.9 403.45 587.75 403.25 587.8 400.5 588.15 399.7 590.65 399.4 594.6 398.05 599.9 397.3 602.95 395.65 608.95 393.95 608.35 388.85 607.3 384.55 606.4 382.15 605.2 380.1 604.5 378 604.9 375.55 605.35 375.05 607.2 380.6 617.3 390.05 626.9 397.5 634.5 408.85 643.15 416.25 649.95 426.45 656.35 434.45 660.1 439.05 662.75 450.7 668.9 464.9 670.1 478.15 671.2 491.8 667.85 498.45 665.25 502.7 662.45 508.3 658.75 511.15 653.9 514.4 649.5 516.15 642.45 517.8 634.1 518.6 630.05 521.05 619.6 521.05 606.9 521.05 597.3 519.55 583.6 519.35 579.9 517.75 574.6 515.35 566.4 515.2 565.75 509.65 547.65 500.95 533.8 497.85 527.65 492.8 524.8 490.8 525.5 489.5 527.65
M 498.05 538.7
Q 497.25 537.1 497.2 535.8 502.2 542.1 503.65 547.85 509.05 558.8 512.15 568.3 515.8 579.55 516.7 589.95 516.65 598.35 516.7 615.2 516.25 629.7 513.35 640.1 512.7 641.25 511.1 646.55 509.85 650.55 507.85 652.45 502.55 659.3 491.15 663.45 483.7 665.5 474.3 665.7 467.95 665.8 457.25 664.95
L 457.65 664
Q 442.95 661.3 426.05 649.9 397.6 632.45 381.4 609.65 395.25 613.55 406.5 616.1 407.25 616.25 408.8 616.7 410.15 617 411.05 616.5 410.4 613.8 410.55 610.35 414.9 611.65 421.35 616.35 428.8 621.7 431.9 623.15 433.45 623.1 434.7 621.55 435.2 620.95 436.45 618.6 437.6 616.9 439.65 613.3 441.65 609.7 442.8 607.95 445.8 609.7 451.7 613.15 456.85 616 461 617.55 461.35 617.95 466.55 620.25 470 621.75 468.95 624.6 466.65 625.2 465.15 627.75 464.35 629.15 463.25 632.5 461.9 633.4 461.45 634.6 460.9 636.05 462.45 636.8
L 462.8 634.6
Q 463.8 633.85 465.85 629.15 467.4 625.6 470.4 625.95 470.7 627.4 470.35 631.05 470.4 634.2 472.5 634.95 472.65 635.75 472.8 637.4 473.05 638.8 473.75 639.55 474.9 639.3 474.8 638 474.7 636.8 473.8 636.15 474.35 634.75 473.8 633.8 473.2 632.8 471.75 633.5 471.85 632.4 471.15 625.65 470.65 620.95 472.2 618.05 476.2 610.6 479.9 598.4 485.55 579.5 486.05 578.15 489.25 578.85 495.95 581.5 502.35 583.95 505.9 584.65 504.85 570.05 504.2 562.75 503.05 549.75 499.45 541.4 498.5 539.6 498.05 538.7
M 494 535.15
Q 494.35 536.05 495.45 540.4 496.25 543.6 497.35 545.4 501.4 562.1 502.2 579 499.55 578.45 493.35 576.1 487.8 574 484.5 573.55 481.7 578.1 479.55 587.3 477.15 597.55 475.3 601.45 474.3 603.95 472.5 609.1 470.8 613.65 469 616.35 465.45 614.15 459.15 611.3 451.45 607.85 449.1 606.6 446 604.4 443.7 603.4 440.55 601.9 437.7 601.95 437.1 603.2 434.85 610.3 433.2 615.45 430.75 618.1 419.35 608.75 409 604.15 407.2 606.55 406.5 610.85 404.05 610.6 402.8 610.35 400.6 609.95 400.05 608.35 401.95 602.65 403.2 592.1 404.6 591.15 407.5 591.75 410.5 592.35 411.8 591.5 412.65 590.8 412.85 589.35 412.95 588.8 412.95 586.9 412.7 579.15 412.5 575.9 412.1 569.75 411.25 564.95 413.85 566.05 420.95 568.45 427.15 570.5 430.55 572.2 431.8 572.45 436.35 574.1 439.9 575.35 442.25 575.25 443.2 573.25 443.95 569.3 444.75 564.95 445.4 563.2 446.35 563.85 447.95 565.45 449.6 567 450.5 567.65 451.75 567.95 452.85 567.1 453.85 566.3 454.2 565 454.6 563.7 455.65 560.9 456.65 558.2 457.05 556.75 459.3 557.9 463.75 560.25 467.75 562.3 470.55 563.6 471 563.85 471.75 563.75 472.2 563.7 473 563.55 473.5 565.45 472.5 567.25 471.45 569.2 469.45 569 467.8 570.1 464.4 570.55 460.6 571.05 459.15 571.75 458.65 572.5 459.45 573.05 459.9 573.35 460.9 573.8 463.35 572.8 464.85 572.55 467.2 572.15 468.85 573.2 469.85 572.4 470.6 571.95
L 473.25 572.25
Q 473.8 575.45 470.65 577.65 470.3 579.25 469 581.25 466.9 584.45 466.85 584.55 467.75 584.4 469 582.95 470.2 581.55 471.35 581.65
L 471.5 583.8
Q 472.75 583.4 472.4 581.45 472 579.3 472.8 578.65 475.55 576.2 475.1 571.5
L 473.65 570.15
Q 473.75 568.35 474.8 566.05 476.15 563.55 476.75 562.25 479.9 555.5 484.6 546.6 490.1 536.35 492.85 531.2 493.8 531.6 493.8 532.95 493.85 534.8 494 535.15 Z"/>
</g>
</defs>

<g id="fill4" transform="matrix( 0.4269866943359375, 0, 0, 0.4269866943359375, 77.2,186.7) ">
<g transform="matrix( 1.6985321044921875, 0, 0, 1.6985321044921875, -100.9,-571.6) ">
<use xlink:href="#fill4_0_Layer0_0_FILL"/>
</g>
</g>

<g id="fill5" transform="matrix( 0.4269866943359375, 0, 0, 0.4269866943359375, 110.4,198.7) ">
<g transform="matrix( 1.6985321044921875, 0, 0, 1.6985321044921875, -178.6,-599.7) ">
<use xlink:href="#fill5_0_Layer0_0_FILL"/>
</g>
</g>

<g id="fill1" transform="matrix( 0.4269866943359375, 0, 0, 0.4269866943359375, 180.05,297.6) ">
<g transform="matrix( 1.6985321044921875, 0, 0, 1.6985321044921875, -341.7,-831.25) ">
<use xlink:href="#fill1_0_Layer0_0_FILL"/>
</g>

<g transform="matrix( 1.6985321044921875, 0, 0, 1.6985321044921875, -341.7,-831.25) ">
<use xlink:href="#fill1_0_Layer0_1_FILL"/>
</g>
</g>

<g id="fill2" transform="matrix( 0.4269866943359375, 0, 0, 0.4269866943359375, 50.4,65.65) ">
<g transform="matrix( 1.6985321044921875, 0, 0, 1.6985321044921875, -38.1,-288) ">
<use xlink:href="#fill2_0_Layer0_0_FILL"/>
</g>
</g>

<g id="fill3" transform="matrix( 0.4269866943359375, 0, 0, 0.4269866943359375, 55.4,147.85) ">
<g transform="matrix( 1.6985321044921875, 0, 0, 1.6985321044921875, -49.85,-480.6) ">
<use xlink:href="#fill3_0_Layer0_0_MEMBER_0_FILL"/>
</g>

<g transform="matrix( 1.6985321044921875, 0, 0, 1.6985321044921875, -49.85,-480.6) ">
<use xlink:href="#fill3_0_Layer0_0_MEMBER_1_FILL"/>
</g>
</g>

<g id="fill6" transform="matrix( 0.4269866943359375, 0, 0, 0.4269866943359375, 151.65,217.15) ">
<g transform="matrix( 1.6985321044921875, 0, 0, 1.6985321044921875, -275.25,-642.9) ">
<use xlink:href="#fill6_0_Layer0_0_FILL"/>
</g>
</g>

<g id="fill7" transform="matrix( 0.4269866943359375, 0, 0, 0.4269866943359375, 180.1,297.5) ">
<g transform="matrix( 1, 0, 0, 1, 0,0) ">
<use xlink:href="#fill7_0_Layer0_0_FILL"/>
</g>

<g transform="matrix( 1, 0, 0, 1, 0,0) ">
<use xlink:href="#fill7_0_Layer0_1_FILL"/>
</g>
</g>

<g id="fill8" transform="matrix( 0.4269866943359375, 0, 0, 0.4269866943359375, 55.25,148) ">
<g transform="matrix( 1, 0, 0, 1, 0,0) ">
<use xlink:href="#fill8_0_Layer0_0_FILL"/>
</g>
</g>

<g id="outline" transform="matrix( 0.4269866943359375, 0, 0, 0.4269866943359375, 46.85,62.15) ">
<g transform="matrix( 1.6985321044921875, 0, 0, 1.6985321044921875, -29.75,-279.85) ">
<use xlink:href="#outline_0_Layer0_0_MEMBER_0_MEMBER_0_MEMBER_0_MEMBER_0_FILL"/>
</g>

<g transform="matrix( 1.6985321044921875, 0, 0, 1.6985321044921875, -29.75,-279.85) ">
<use xlink:href="#outline_0_Layer0_0_MEMBER_0_MEMBER_1_MEMBER_0_MEMBER_0_FILL"/>
</g>

<g transform="matrix( 1.6985321044921875, 0, 0, 1.6985321044921875, -29.75,-279.85) ">
<use xlink:href="#outline_0_Layer0_0_MEMBER_0_MEMBER_2_MEMBER_0_MEMBER_0_FILL"/>
</g>

<g transform="matrix( 1.6985321044921875, 0, 0, 1.6985321044921875, -29.75,-279.85) ">
<use xlink:href="#outline_0_Layer0_0_MEMBER_0_MEMBER_3_MEMBER_0_MEMBER_0_FILL"/>
</g>

<g transform="matrix( 1.6985321044921875, 0, 0, 1.6985321044921875, -29.75,-279.85) ">
<use xlink:href="#outline_0_Layer0_0_MEMBER_0_MEMBER_4_MEMBER_0_MEMBER_0_FILL"/>
</g>
</g>
</svg>
